<svg width="414" height="344" viewBox="0 0 414 344" fill="none" xmlns="http://www.w3.org/2000/svg">
<path d="M412.89 55.3437V344H0V45.9064C51.5035 22.2741 114.973 -17.0406 170.079 8.08736C184.187 14.5204 194.749 23.2494 207.066 30.8709C258.73 62.8236 344.616 73.0345 412.89 55.3437Z" fill="#F2F2F2"/>
<path opacity="0.47" d="M0.0700684 341.641V216.944H20.9283V165.289H46.5331V217.835H52.8529V194.677H70.5579V217.542H95.5253V261.477H111.962V244.854L133.139 224.962V244.554H145.786V188.148H172.014V341.641H0.0700684Z" fill="#FFCC00"/>
<path opacity="0.47" d="M171.867 341.641V216.944H192.725V165.289H218.33V217.835H224.65V194.677H242.355V217.542H267.322V261.477H283.759V244.854L304.936 224.962V244.554H317.582V188.148H343.811V341.641H171.867Z" fill="#FFCC00"/>
<path opacity="0.47" d="M343.664 216.944V341.641H414.152V194.677H396.447V217.835H390.127V165.289H364.523V216.944H343.664Z" fill="#FFCC00"/>
<path d="M0.0716796 343.758L0.0700684 341.301L416 338.688V341.144L0.0716796 343.758Z" fill="url(#paint0_linear)"/>
<path d="M249.602 273.298L250.577 264.319L251.238 264.312L250.355 273.285L249.602 273.298Z" fill="#808285"/>
<path d="M252.176 271.919C252.725 271.688 257.15 272.069 257.15 272.069L256.996 280.393L255.311 281.104L250.793 279.258L252.176 271.919Z" fill="#350FA2"/>
<path d="M257.773 275.917C257.81 278.292 257.212 280.313 256.996 280.387C256.718 280.481 256.342 278.754 256.311 276.378C256.274 274.002 256.86 272.069 257.15 272.069C257.446 272.063 257.743 273.541 257.773 275.917Z" fill="white"/>
<path d="M163.528 297.778L157.826 297.865L157.801 296.026C157.777 294.199 159.221 292.696 161.029 292.671L163.461 292.634L163.528 297.778Z" fill="#FF9500"/>
<path d="M168.818 294.685L167.738 287.415L176.915 287.277L186.184 293.307L188.005 297.41L168.602 297.703L168.818 294.685Z" fill="#FFCC00"/>
<path d="M270.462 333.446C270.406 333.446 270.35 333.433 270.295 333.415C270.06 333.321 269.949 333.053 270.042 332.822L277.59 313.823C277.682 313.586 277.941 313.474 278.176 313.567C278.41 313.661 278.522 313.929 278.429 314.159L270.881 333.159C270.807 333.333 270.64 333.446 270.462 333.446Z" fill="#27272A"/>
<path d="M283.638 327.758C283.583 327.758 283.527 327.745 283.472 327.727L264.667 320.101C264.433 320.007 264.322 319.739 264.414 319.508C264.507 319.271 264.772 319.159 265.001 319.253L283.805 326.879C284.04 326.972 284.151 327.24 284.058 327.471C283.984 327.646 283.817 327.758 283.638 327.758Z" fill="#27272A"/>
<path d="M277.948 333.47C277.769 333.47 277.596 333.358 277.528 333.184L270.098 314.134C270.005 313.897 270.122 313.635 270.351 313.542C270.585 313.448 270.844 313.567 270.937 313.798L278.367 332.847C278.46 333.084 278.343 333.346 278.114 333.439C278.059 333.458 278.003 333.47 277.948 333.47Z" fill="#27272A"/>
<path d="M264.809 327.696C264.63 327.696 264.457 327.584 264.389 327.409C264.297 327.172 264.414 326.911 264.642 326.817L283.496 319.309C283.731 319.216 283.99 319.334 284.083 319.565C284.175 319.802 284.058 320.064 283.83 320.157L264.976 327.665C264.92 327.684 264.858 327.696 264.809 327.696Z" fill="#27272A"/>
<path d="M281.503 331.076C281.392 331.076 281.274 331.032 281.188 330.945L266.648 316.685C266.469 316.51 266.463 316.217 266.636 316.036C266.808 315.855 267.098 315.849 267.277 316.024L281.817 330.284C281.996 330.459 282.002 330.752 281.83 330.933C281.737 331.026 281.62 331.076 281.503 331.076Z" fill="#27272A"/>
<path d="M267.173 331.289C267.062 331.289 266.945 331.245 266.858 331.158C266.679 330.983 266.673 330.69 266.846 330.509L280.96 315.818C281.133 315.637 281.423 315.631 281.602 315.806C281.781 315.98 281.787 316.274 281.614 316.454L267.5 331.145C267.407 331.245 267.29 331.289 267.173 331.289Z" fill="#27272A"/>
<path d="M264.099 324.093C263.852 324.093 263.649 323.894 263.649 323.644C263.642 323.394 263.846 323.182 264.093 323.182L284.354 322.883H284.36C284.607 322.883 284.81 323.082 284.81 323.332C284.817 323.582 284.613 323.794 284.366 323.794L264.105 324.093C264.105 324.093 264.105 324.093 264.099 324.093Z" fill="#27272A"/>
<path d="M274.381 334.181C274.134 334.181 273.93 333.982 273.93 333.732L273.634 313.261C273.628 313.012 273.831 312.8 274.078 312.8C274.338 312.8 274.536 312.999 274.536 313.249L274.832 333.72C274.838 333.969 274.634 334.181 274.387 334.181H274.381Z" fill="#27272A"/>
<path d="M274.232 327.776C276.577 327.776 278.478 325.856 278.478 323.486C278.478 321.117 276.577 319.196 274.232 319.196C271.887 319.196 269.986 321.117 269.986 323.486C269.986 325.856 271.887 327.776 274.232 327.776Z" fill="url(#paint1_linear)"/>
<path d="M276.072 323.461C276.084 324.49 275.275 325.332 274.257 325.351C273.239 325.363 272.406 324.546 272.387 323.518C272.375 322.489 273.183 321.647 274.202 321.628C275.22 321.61 276.059 322.433 276.072 323.461Z" fill="#FF9500"/>
<path d="M274.01 308.39C282.262 308.266 289.05 314.925 289.174 323.268C289.297 331.605 282.706 338.464 274.455 338.583C266.197 338.707 259.409 332.048 259.285 323.705C259.168 315.368 265.759 308.509 274.01 308.39ZM284.366 323.337C284.286 317.681 279.682 313.167 274.084 313.248C268.487 313.329 264.019 317.981 264.099 323.636C264.179 329.292 268.783 333.806 274.381 333.725C279.978 333.644 284.453 328.992 284.366 323.337Z" fill="#27272A"/>
<path d="M180.217 291.885L163.455 292.627C163.455 292.627 154.741 297.547 150.001 315.031L151.735 314.844C151.735 314.844 154.025 301.188 163.492 294.766L185.259 294.473L180.217 291.885Z" fill="#FFCC00"/>
<path d="M172.731 333.04C172.675 333.04 172.62 333.028 172.564 333.009C172.33 332.916 172.219 332.648 172.311 332.417L179.859 313.417C179.951 313.181 180.217 313.068 180.445 313.162C180.68 313.255 180.791 313.523 180.698 313.754L173.15 332.754C173.076 332.934 172.91 333.04 172.731 333.04Z" fill="#27272A"/>
<path d="M185.907 327.354C185.852 327.354 185.796 327.341 185.74 327.322L166.936 319.696C166.701 319.603 166.59 319.335 166.683 319.104C166.776 318.867 167.035 318.755 167.269 318.848L186.074 326.474C186.308 326.568 186.419 326.836 186.327 327.067C186.253 327.241 186.086 327.354 185.907 327.354Z" fill="#27272A"/>
<path d="M180.216 333.065C180.037 333.065 179.865 332.953 179.797 332.778L172.366 313.729C172.274 313.492 172.391 313.23 172.619 313.137C172.854 313.043 173.113 313.162 173.206 313.392L180.636 332.442C180.729 332.679 180.611 332.94 180.383 333.034C180.328 333.053 180.272 333.065 180.216 333.065Z" fill="#27272A"/>
<path d="M167.078 327.291C166.899 327.291 166.726 327.179 166.658 327.004C166.566 326.767 166.683 326.505 166.911 326.412L185.765 318.904C186 318.811 186.259 318.929 186.351 319.16C186.444 319.397 186.327 319.659 186.098 319.752L167.245 327.26C167.189 327.285 167.133 327.291 167.078 327.291Z" fill="#27272A"/>
<path d="M183.771 330.672C183.66 330.672 183.543 330.628 183.456 330.541L168.916 316.28C168.737 316.106 168.731 315.813 168.904 315.632C169.077 315.451 169.367 315.445 169.546 315.619L184.086 329.88C184.265 330.054 184.271 330.348 184.098 330.528C184.005 330.628 183.888 330.672 183.771 330.672Z" fill="#27272A"/>
<path d="M169.441 330.883C169.33 330.883 169.213 330.84 169.127 330.752C168.948 330.578 168.942 330.285 169.114 330.104L183.229 315.413C183.401 315.232 183.691 315.226 183.87 315.401C184.049 315.575 184.056 315.868 183.883 316.049L169.769 330.74C169.682 330.84 169.559 330.883 169.441 330.883Z" fill="#27272A"/>
<path d="M166.374 323.694C166.127 323.694 165.923 323.494 165.923 323.245C165.917 322.995 166.121 322.783 166.368 322.783L186.629 322.483C186.869 322.496 187.085 322.683 187.085 322.933C187.092 323.182 186.888 323.394 186.641 323.394L166.38 323.694C166.374 323.694 166.374 323.694 166.374 323.694Z" fill="#27272A"/>
<path d="M176.65 333.776C176.403 333.776 176.199 333.576 176.199 333.327L175.902 312.856C175.896 312.606 176.1 312.394 176.347 312.394C176.6 312.37 176.804 312.594 176.804 312.843L177.101 333.314C177.107 333.564 176.903 333.776 176.656 333.776C176.656 333.776 176.656 333.776 176.65 333.776Z" fill="#27272A"/>
<path d="M176.501 327.372C178.846 327.372 180.747 325.451 180.747 323.082C180.747 320.713 178.846 318.792 176.501 318.792C174.156 318.792 172.255 320.713 172.255 323.082C172.255 325.451 174.156 327.372 176.501 327.372Z" fill="url(#paint2_linear)"/>
<path d="M177.796 324.386C178.503 323.649 178.486 322.473 177.757 321.758C177.029 321.043 175.864 321.061 175.157 321.797C174.449 322.533 174.466 323.709 175.195 324.424C175.924 325.139 177.088 325.122 177.796 324.386Z" fill="#FF9500"/>
<path d="M176.285 307.985C184.537 307.86 191.325 314.52 191.449 322.863C191.572 331.2 184.981 338.059 176.724 338.183C168.466 338.308 161.677 331.649 161.554 323.306C161.437 314.963 168.028 308.104 176.285 307.985ZM186.635 322.932C186.555 317.276 181.951 312.761 176.353 312.843C170.756 312.924 166.288 317.575 166.368 323.231C166.448 328.886 171.052 333.401 176.649 333.32C182.247 333.239 186.721 328.587 186.635 322.932Z" fill="#27272A"/>
<path d="M197.49 302.972C191.035 295.121 177.557 297.566 166.349 297.678C161.937 297.722 158.135 300.933 155.148 304.811C154.444 306.283 153.796 307.935 153.26 309.793C153.278 311.246 155.586 314.158 158.888 312.949C158.888 312.949 176.637 303.19 190.295 318.816L191.467 324.191L202.884 325.058C202.835 319.334 202.094 308.571 197.49 302.972Z" fill="#FF9500"/>
<path d="M224.342 322.414L219.177 316.852L213.733 305.323C213.733 305.323 212.925 297.298 216.208 293.98L194.176 294.311L163.485 294.766C163.485 294.766 158.622 297.566 155.154 304.818C158.147 300.939 161.949 297.728 166.355 297.684C177.562 297.572 191.041 295.128 197.496 302.978C202.1 308.578 202.841 319.34 202.884 325.058L206.568 325.339L224.342 322.414Z" fill="url(#paint3_linear)"/>
<path d="M178.544 284.846L152.143 285.239L151.791 261.014L178.192 260.621L178.544 284.846Z" fill="#FFCC00"/>
<path d="M176.881 285.533L155.006 285.858L155.031 287.617L176.907 287.292L176.881 285.533Z" fill="#DE8800"/>
<path d="M178.235 263.552L151.828 263.945L151.791 261.014L178.192 260.621L178.235 263.552Z" fill="#FF9500"/>
<path d="M166.178 286.516L164.531 286.54L164.693 297.719L166.341 297.695L166.178 286.516Z" fill="#27272A"/>
<path d="M257.242 321.928C257.242 321.928 262.291 310.131 284.144 307.873C284.144 307.873 276.627 298.183 259.057 304.226C259.057 304.226 253.015 316.123 257.242 321.928Z" fill="#DE8800"/>
<path d="M269.771 311.24L275.035 323.642L273.936 324.104L268.08 309.974L269.055 309.382L269.771 311.24Z" fill="#27272A"/>
<path d="M266.746 300.852L270.585 310.118L267.512 311.502L263.55 301.401C263.55 301.401 265.025 300.098 266.746 300.852Z" fill="#A06109"/>
<path d="M270.11 300.21L270.536 298.894C270.536 298.894 263.877 286.38 255.317 281.104L254.077 282.165L270.11 300.21Z" fill="#A06109"/>
<path d="M249.602 273.297L247.356 278.354L248.442 284.259C251.238 287.9 253.898 291.928 255.817 297.995C255.817 297.995 244.579 315.692 239.426 318.342C239.426 318.342 228.391 319.402 220.621 317.394L219.177 316.858C219.177 316.858 220.701 319.071 220.596 319.57C220.492 320.075 214.339 322.569 202.823 320.842C202.823 320.842 202.051 322.707 202.878 325.057L250.059 327.732C250.059 327.732 257.415 305.515 270.104 300.215C266.241 293.238 261.125 286.946 254.033 280.018L252.176 271.925L249.602 273.297Z" fill="url(#paint4_linear)"/>
<path d="M249.602 273.298C249.602 273.298 247.442 273.048 246.806 274.682C246.165 276.31 248.263 277.9 248.263 277.9L250.003 274.189L249.602 273.298Z" fill="#350FA2"/>
<path d="M249.3 275.955L246.263 277.582L246.64 279.453L250.04 277.476C250.04 277.476 250.454 277.17 250.392 276.528C250.343 276.004 249.763 275.705 249.3 275.955Z" fill="#414042"/>
<path d="M212.345 295.289L217.622 294.142C218.183 294.017 218.603 293.525 218.621 292.945C218.683 291.13 218.418 287.414 215.332 286.703C211.901 285.917 188.622 285.076 180.975 284.82C178.859 284.751 176.89 286.061 176.223 288.094C175.495 290.313 176.334 293.07 183.512 294.466C196.7 297.029 212.345 295.289 212.345 295.289Z" fill="#27272A"/>
<path d="M250.54 262.062L250.263 267.163C250.263 267.163 252.096 266.608 252.238 264.794C252.256 264.557 251.435 262.886 250.54 262.062Z" fill="#350FA2"/>
<path d="M224.386 242.439L220.183 238.33C221.843 236.559 223.108 234.57 223.867 232.307L228.169 237.65C226.7 238.735 225.398 240.226 224.386 242.439Z" fill="#FAC376"/>
<path d="M234.451 233.534C234.451 233.534 234.92 236.409 235.118 237.575L233.39 237.375L234.451 233.534Z" fill="#FAC376"/>
<path d="M234.186 236.945C233.995 237.737 232.976 240.231 232.976 240.231C232.285 240.861 231.662 241.004 230.742 240.911C228.508 240.699 226.41 239.502 224.953 237.774C223.497 236.047 222.67 233.821 222.479 231.564C222.238 228.695 223.281 225.434 225.861 224.2C228.459 222.959 233.31 223.907 234.865 226.507C236.5 229.238 234.871 234.102 234.186 236.945Z" fill="#FAC376"/>
<path d="M236.408 226.214L240.197 228.833L240.142 229.344L231.989 228.402L236.408 226.214Z" fill="#27272A"/>
<path d="M240.296 276.877C241.487 277.981 243.135 278.548 244.745 278.417C244.505 277.856 244.881 277.145 245.461 276.97C246.041 276.796 246.702 277.126 246.979 277.669C247.257 278.211 247.171 278.897 246.831 279.402C246.319 279.34 245.794 279.315 245.276 279.334C245.609 280.481 247.023 281.011 248.177 280.743C249.331 280.475 250.25 279.621 251.059 278.748C251.201 278.598 251.343 278.436 251.38 278.23C251.435 277.937 251.268 277.656 251.096 277.413C250.367 276.372 249.522 275.418 248.584 274.564C248.312 274.314 248.016 274.071 247.658 273.984C247.276 273.89 246.874 273.99 246.492 274.071C245.017 274.37 242.956 273.977 241.499 273.591L240.296 276.877Z" fill="#FAC376"/>
<path d="M233.309 228.134C233.334 228.309 230.014 235.673 230.014 235.673L219.868 234.501C219.868 234.501 215.066 220.963 225.064 219.592C235.062 218.22 236.969 225.69 237.129 226.469C237.29 227.243 233.309 228.134 233.309 228.134Z" fill="url(#paint5_linear)"/>
<path d="M229.446 240.68L227.891 240.088L228.527 234.488L230.125 234.675L229.446 240.68Z" fill="#27272A"/>
<path d="M232.612 315.169L231.18 320.687L230.872 323.394L247.75 325.352C247.929 323.793 246.899 322.315 245.3 321.835L241.684 320.756L238.82 317.326L238.561 316.142L232.612 315.169Z" fill="#27272A"/>
<path d="M217.017 278.099C218.023 277.819 218.918 277.582 219.72 277.376C220.103 275.967 227.935 247.072 224.392 242.439L221.541 238.23C221.541 238.23 215.339 233.971 209.031 252.796C205.347 263.789 201.854 271.639 201.255 277.002C204.755 277.856 212.364 279.402 217.017 278.099Z" fill="#F46B29"/>
<path d="M247.769 288.992C247.516 283.892 219.701 277.432 219.701 277.432C219.701 277.432 219.708 277.413 219.72 277.376C218.924 277.557 218.029 277.775 217.029 278.024C212.394 279.209 204.779 277.7 201.273 276.877C200.878 280.431 201.594 284.378 205.106 285.831C213.555 289.329 237.204 292.746 237.204 292.746L232.52 315.549L238.568 316.136C238.561 316.142 248.022 294.093 247.769 288.992Z" fill="url(#paint6_linear)"/>
<path d="M224.626 265.851C224.164 260.595 223.701 255.338 223.238 250.082C221.522 246.328 219.479 246.253 217.221 248.529C216.758 254.272 217.165 260.09 218.436 265.708C218.646 266.631 218.881 267.566 219.387 268.364C219.899 269.181 220.658 269.805 221.436 270.366C227.175 274.506 234.124 276.171 241.055 277.474C241.277 276.171 241.734 274.612 241.956 273.309C236.303 270.64 230.533 267.884 224.626 265.851Z" fill="url(#paint7_linear)"/>
<path d="M247.319 278.474C247.331 279.297 246.677 279.977 245.863 279.989C245.048 280.002 244.375 279.341 244.363 278.518C244.351 277.694 245.005 277.015 245.819 277.002C246.64 276.984 247.307 277.645 247.319 278.474Z" fill="#350FA2"/>
<path d="M148.007 292.728H114.601V293.002H148.007V292.728Z" fill="#27272A"/>
<path d="M147.397 298.215H123.149V298.489H147.397V298.215Z" fill="#27272A"/>
<path d="M149.433 287.408H125.185V287.683H149.433V287.408Z" fill="#27272A"/>
<path fill-rule="evenodd" clip-rule="evenodd" d="M277.331 190.64C267.481 190.64 259.489 196.919 259.489 204.657C259.489 207.85 260.865 210.786 263.149 213.143L256.971 218.674L265.938 215.444C269.03 217.465 272.999 218.674 277.331 218.674C287.181 218.674 295.173 212.395 295.173 204.657C295.173 196.919 287.181 190.64 277.331 190.64Z" fill="url(#paint8_linear)"/>
<path fill-rule="evenodd" clip-rule="evenodd" d="M269.974 204.359C269.974 205.544 269.024 206.504 267.851 206.504C266.679 206.504 265.729 205.544 265.729 204.359C265.729 203.174 266.679 202.214 267.851 202.214C269.024 202.22 269.974 203.18 269.974 204.359Z" fill="#EFF3FF"/>
<path fill-rule="evenodd" clip-rule="evenodd" d="M279.454 204.359C279.454 205.544 278.504 206.504 277.331 206.504C276.158 206.504 275.208 205.544 275.208 204.359C275.208 203.174 276.158 202.214 277.331 202.214C278.504 202.22 279.454 203.18 279.454 204.359Z" fill="#EFF3FF"/>
<path fill-rule="evenodd" clip-rule="evenodd" d="M288.933 204.359C288.933 205.544 287.983 206.504 286.81 206.504C285.638 206.504 284.687 205.544 284.687 204.359C284.687 203.174 285.638 202.214 286.81 202.214C287.983 202.22 288.933 203.18 288.933 204.359Z" fill="#EFF3FF"/>
<defs>
<linearGradient id="paint0_linear" x1="0.0708261" y1="341.224" x2="416" y2="341.224" gradientUnits="userSpaceOnUse">
<stop stop-color="#FFCC00"/>
<stop offset="1" stop-color="#FF9500"/>
</linearGradient>
<linearGradient id="paint1_linear" x1="269.987" y1="323.486" x2="278.477" y2="323.486" gradientUnits="userSpaceOnUse">
<stop stop-color="#7D7D80"/>
<stop offset="1" stop-color="#27272A"/>
</linearGradient>
<linearGradient id="paint2_linear" x1="172.257" y1="323.082" x2="180.747" y2="323.082" gradientUnits="userSpaceOnUse">
<stop stop-color="#7D7D80"/>
<stop offset="1" stop-color="#27272A"/>
</linearGradient>
<linearGradient id="paint3_linear" x1="155.151" y1="309.654" x2="224.344" y2="309.654" gradientUnits="userSpaceOnUse">
<stop stop-color="#FFCC00"/>
<stop offset="1" stop-color="#FF9500"/>
</linearGradient>
<linearGradient id="paint4_linear" x1="202.497" y1="299.821" x2="270.108" y2="299.821" gradientUnits="userSpaceOnUse">
<stop stop-color="#FFCC00"/>
<stop offset="1" stop-color="#DA7F00"/>
</linearGradient>
<linearGradient id="paint5_linear" x1="218.713" y1="227.549" x2="237.134" y2="227.549" gradientUnits="userSpaceOnUse">
<stop stop-color="#FFC572"/>
<stop offset="1" stop-color="#C97704"/>
</linearGradient>
<linearGradient id="paint6_linear" x1="229.091" y1="272.952" x2="222.364" y2="290.073" gradientUnits="userSpaceOnUse">
<stop stop-color="#7D7D80"/>
<stop offset="1" stop-color="#27272A"/>
</linearGradient>
<linearGradient id="paint7_linear" x1="235.59" y1="249.573" x2="226.261" y2="268.584" gradientUnits="userSpaceOnUse">
<stop stop-color="#FFCC00"/>
<stop offset="1" stop-color="#F46B29"/>
</linearGradient>
<linearGradient id="paint8_linear" x1="256.975" y1="204.658" x2="295.17" y2="204.658" gradientUnits="userSpaceOnUse">
<stop stop-color="#FFCC00"/>
<stop offset="1" stop-color="#FF9500"/>
</linearGradient>
</defs>
</svg>
