<svg width="414" height="344" viewBox="0 0 414 344" fill="none" xmlns="http://www.w3.org/2000/svg">
<path d="M416 61.6316V337.191H0V38.9642C50.0177 -2.34609 127.361 -7.66089 164.595 8.38346C179.202 14.6804 190.138 23.2249 202.892 30.6852C256.384 61.962 416 61.6316 416 61.6316Z" fill="#F2F2F2"/>
<path opacity="0.47" d="M0 337.102V211.83H20.5148V159.937H45.6981V212.725H51.9139V189.46H69.3274V212.431H93.8839V256.569H110.05V239.868L130.879 219.885V239.568H143.317V182.901H169.114V337.102H0Z" fill="#FFCC00"/>
<path opacity="0.47" d="M168.969 337.102V211.83H189.484V159.937H214.667V212.725H220.883V189.46H238.297V212.431H262.853V256.569H279.019V239.868L299.848 219.885V239.568H312.286V182.901H338.083V337.102H168.969Z" fill="#FFCC00"/>
<path d="M0.00161151 342.285L0 339.817L416 337.191V339.66L0.00161151 342.285Z" fill="url(#paint0_linear)"/>
<path d="M394.987 306.946C394.44 302.461 390.73 298.069 386.313 298.451C389.931 295.175 392.118 290.308 392.18 285.372C392.217 282.427 391.4 279.27 389.139 277.435C387.21 275.863 384.083 275.806 382.345 277.435C385.281 273.388 386.369 267.97 385.158 263.077C383.85 257.79 379.888 253.255 374.888 251.319C372.068 250.223 368.812 249.954 366.091 251.282C363.21 252.685 361.349 255.66 360.274 258.73C358.247 264.524 358.535 270.851 358.855 276.996C355.464 276.332 351.84 277.003 348.891 278.832C347.828 279.496 346.76 280.323 346.385 281.588C346.145 282.39 346.139 283.248 346.145 284.087C346.188 287.564 346.508 291.11 347.288 294.499C347.644 296.046 348.129 297.568 348.805 299.003C349.161 299.761 350.482 302.78 351.379 302.924C348.553 302.473 345.808 304.603 344.604 307.253C343.4 309.896 343.406 312.934 343.565 315.847C343.823 320.627 344.628 325.807 348.062 329.065C351.772 332.585 357.11 332.873 361.871 333.487C367.197 334.176 372.707 334.039 377.83 332.272C384.139 330.092 389.041 325.914 391.915 319.806C393.783 315.835 395.534 311.437 394.987 306.946Z" fill="#F7D19C"/>
<path d="M371.073 336.03C371.073 323.339 371.073 310.648 371.073 297.956C371.073 295.213 366.896 295.213 366.896 297.956C366.896 310.648 366.896 323.339 366.896 336.03C366.896 338.774 371.073 338.78 371.073 336.03Z" fill="#FFF3C3"/>
<path d="M370.895 322.807C375.514 322.036 379.869 319.631 383.082 316.166C383.832 315.358 383.93 313.949 383.082 313.153C382.265 312.389 380.932 312.289 380.127 313.153C379.771 313.535 379.403 313.911 379.022 314.262C378.819 314.45 378.61 314.632 378.401 314.813C378.309 314.895 378.211 314.97 378.119 315.051C377.977 315.17 377.947 315.183 378.106 315.064C377.246 315.715 376.356 316.304 375.41 316.818C374.949 317.068 374.482 317.288 374.009 317.507C374.194 317.426 374.181 317.438 374.003 317.507C373.893 317.551 373.776 317.601 373.665 317.645C373.407 317.745 373.149 317.839 372.891 317.927C371.878 318.271 370.84 318.528 369.789 318.703C368.708 318.885 368.008 320.313 368.327 321.322C368.702 322.512 369.734 323.001 370.895 322.807Z" fill="#FFF3C3"/>
<path d="M367.934 311.505C367.915 311.512 367.412 311.618 367.737 311.556C368.051 311.493 367.608 311.562 367.541 311.568C367.277 311.581 367.012 311.568 366.748 311.556C366.386 311.531 366.828 311.556 366.828 311.568C366.828 311.574 366.478 311.499 366.435 311.487C366.171 311.424 365.913 311.349 365.661 311.255C365.507 311.199 365.249 311.211 365.63 311.255C365.538 311.242 365.415 311.155 365.335 311.117C365.09 310.992 364.85 310.86 364.623 310.716C364.396 310.572 364.15 310.422 363.947 310.246C364.156 310.434 364.095 310.359 363.923 310.215C363.818 310.127 363.72 310.033 363.622 309.939C363.216 309.557 362.872 309.131 362.504 308.705C362.295 308.461 362.786 309.1 362.461 308.649C362.375 308.53 362.289 308.411 362.209 308.292C362.061 308.073 361.914 307.853 361.773 307.628C361.14 306.632 360.593 305.579 360.046 304.533C359.53 303.55 358.112 303.161 357.19 303.769C356.207 304.414 355.888 305.63 356.441 306.682C357.675 309.044 358.996 311.524 361.036 313.278C363.278 315.208 366.122 316.273 369.052 315.615C370.121 315.377 370.846 314.049 370.514 312.996C370.139 311.844 369.083 311.249 367.934 311.505Z" fill="#FFF3C3"/>
<path d="M267.824 197.629H60.0286V303.334H267.824V197.629Z" fill="#FBE9A2"/>
<path d="M64.0982 197.629H62.6194V303.334H64.0982V197.629Z" fill="white"/>
<path d="M68.2904 197.629H66.8115V303.334H68.2904V197.629Z" fill="white"/>
<path d="M72.4824 197.629H71.0035V303.334H72.4824V197.629Z" fill="white"/>
<path d="M76.6745 197.629H75.1956V303.334H76.6745V197.629Z" fill="white"/>
<path d="M80.8664 197.629H79.3876V303.334H80.8664V197.629Z" fill="white"/>
<path d="M85.0586 197.629H83.5796V303.334H85.0586V197.629Z" fill="white"/>
<path d="M89.2507 197.629H87.7717V303.334H89.2507V197.629Z" fill="white"/>
<path d="M93.4426 197.629H91.9637V303.334H93.4426V197.629Z" fill="white"/>
<path d="M97.6346 197.629H96.1558V303.334H97.6346V197.629Z" fill="white"/>
<path d="M101.827 197.629H100.348V303.334H101.827V197.629Z" fill="white"/>
<path d="M106.019 197.629H104.54V303.334H106.019V197.629Z" fill="white"/>
<path d="M110.211 197.629H108.732V303.334H110.211V197.629Z" fill="white"/>
<path d="M114.403 197.629H112.924V303.334H114.403V197.629Z" fill="white"/>
<path d="M118.595 197.629H117.116V303.334H118.595V197.629Z" fill="white"/>
<path d="M122.787 197.629H121.308V303.334H122.787V197.629Z" fill="white"/>
<path d="M126.979 197.629H125.5V303.334H126.979V197.629Z" fill="white"/>
<path d="M131.171 197.629H129.692V303.334H131.171V197.629Z" fill="white"/>
<path d="M135.363 197.629H133.884V303.334H135.363V197.629Z" fill="white"/>
<path d="M139.555 197.629H138.076V303.334H139.555V197.629Z" fill="white"/>
<path d="M143.747 197.629H142.268V303.334H143.747V197.629Z" fill="white"/>
<path d="M147.939 197.629H146.46V303.334H147.939V197.629Z" fill="white"/>
<path d="M152.131 197.629H150.652V303.334H152.131V197.629Z" fill="white"/>
<path d="M156.323 197.629H154.844V303.334H156.323V197.629Z" fill="white"/>
<path d="M160.515 197.629H159.036V303.334H160.515V197.629Z" fill="white"/>
<path d="M164.707 197.629H163.229V303.334H164.707V197.629Z" fill="white"/>
<path d="M168.899 197.629H167.421V303.334H168.899V197.629Z" fill="white"/>
<path d="M173.091 197.629H171.613V303.334H173.091V197.629Z" fill="white"/>
<path d="M177.284 197.629H175.805V303.334H177.284V197.629Z" fill="white"/>
<path d="M181.475 197.629H179.997V303.334H181.475V197.629Z" fill="white"/>
<path d="M185.668 197.629H184.189V303.334H185.668V197.629Z" fill="white"/>
<path d="M189.86 197.629H188.381V303.334H189.86V197.629Z" fill="white"/>
<path d="M194.052 197.629H192.573V303.334H194.052V197.629Z" fill="white"/>
<path d="M198.244 197.629H196.765V303.334H198.244V197.629Z" fill="white"/>
<path d="M202.436 197.629H200.957V303.334H202.436V197.629Z" fill="white"/>
<path d="M206.628 197.629H205.149V303.334H206.628V197.629Z" fill="white"/>
<path d="M210.82 197.629H209.341V303.334H210.82V197.629Z" fill="white"/>
<path d="M215.012 197.629H213.533V303.334H215.012V197.629Z" fill="white"/>
<path d="M219.204 197.629H217.725V303.334H219.204V197.629Z" fill="white"/>
<path d="M223.396 197.629H221.917V303.334H223.396V197.629Z" fill="white"/>
<path d="M227.588 197.629H226.109V303.334H227.588V197.629Z" fill="white"/>
<path d="M231.78 197.629H230.301V303.334H231.78V197.629Z" fill="white"/>
<path d="M235.972 197.629H234.493V303.334H235.972V197.629Z" fill="white"/>
<path d="M240.164 197.629H238.685V303.334H240.164V197.629Z" fill="white"/>
<path d="M244.356 197.629H242.877V303.334H244.356V197.629Z" fill="white"/>
<path d="M248.548 197.629H247.069V303.334H248.548V197.629Z" fill="white"/>
<path d="M252.74 197.629H251.261V303.334H252.74V197.629Z" fill="white"/>
<path d="M256.932 197.629H255.453V303.334H256.932V197.629Z" fill="white"/>
<path d="M261.124 197.629H259.646V303.334H261.124V197.629Z" fill="white"/>
<path d="M265.317 197.629H263.838V303.334H265.317V197.629Z" fill="white"/>
<path d="M267.824 334.59V322.61H271.471V330.877C271.466 332.929 269.837 334.59 267.824 334.59Z" fill="#27272A"/>
<path d="M267.818 303.356V320.711H163.846C163.223 316.856 161.416 313.409 158.825 310.767C155.573 307.444 151.075 305.392 146.104 305.392C137.187 305.392 129.781 312.02 128.369 320.711H60.0509V303.356H267.818Z" fill="url(#paint1_linear)"/>
<path d="M267.818 320.711V325.009H164.096V323.744C164.096 322.712 164.012 321.697 163.846 320.711H267.818Z" fill="#27272A"/>
<path d="M311.257 244.023L267.818 239.396V300.22V323.029H271.382V322.865C271.382 313.096 279.149 305.181 288.723 305.181C298.302 305.181 306.064 313.096 306.064 322.865V323.029H331.995V277.083L311.257 244.023Z" fill="url(#paint2_linear)"/>
<path d="M332 294.925H328.436V303.356H332V294.925Z" fill="#FFCC00"/>
<path d="M278.032 263.159V249.92C278.032 248.1 279.588 246.683 281.362 246.887L305.302 249.671C306.92 249.858 308.377 250.753 309.294 252.126L326.485 277.735H306.548L280.767 267.28C279.121 266.611 278.032 264.973 278.032 263.159Z" fill="url(#paint3_linear)"/>
<path d="M288.767 278.313H277.098V279.674H288.767V278.313Z" fill="#27272A"/>
<path d="M306.286 301.757H267.741V300.986H305.53V277.734H306.286V301.757Z" fill="#27272A"/>
<path d="M310.92 243.797L307.19 250.216L307.84 250.609L311.57 244.19L310.92 243.797Z" fill="#27272A"/>
<path d="M60.0454 320.711H128.364C128.197 321.697 128.113 322.707 128.113 323.744V325.009H60.0454V320.711V320.711Z" fill="#27272A"/>
<path d="M156.181 333.513C161.861 327.721 161.861 318.33 156.181 312.538C150.501 306.746 141.292 306.746 135.612 312.538C129.933 318.33 129.933 327.721 135.612 333.513C141.292 339.305 150.501 339.305 156.181 333.513Z" fill="#27272A"/>
<path d="M145.904 330.751C150.09 330.751 153.482 327.292 153.482 323.024C153.482 318.756 150.09 315.296 145.904 315.296C141.719 315.296 138.326 318.756 138.326 323.024C138.326 327.292 141.719 330.751 145.904 330.751Z" fill="url(#paint4_linear)"/>
<path d="M148.656 323.024C148.656 324.577 147.422 325.836 145.899 325.836C144.375 325.836 143.141 324.577 143.141 323.024C143.141 321.471 144.375 320.212 145.899 320.212C147.422 320.212 148.656 321.471 148.656 323.024Z" fill="#27272A"/>
<path d="M303.292 325.382C304.568 317.294 299.174 309.683 291.243 308.382C283.313 307.08 275.849 312.581 274.573 320.668C273.296 328.755 278.69 336.367 286.621 337.668C294.552 338.97 302.015 333.469 303.292 325.382Z" fill="#27272A"/>
<path d="M288.918 330.751C293.103 330.751 296.496 327.291 296.496 323.024C296.496 318.756 293.103 315.296 288.918 315.296C284.733 315.296 281.34 318.756 281.34 323.024C281.34 327.291 284.733 330.751 288.918 330.751Z" fill="url(#paint5_linear)"/>
<path d="M288.918 325.422C290.441 325.422 291.675 324.163 291.675 322.61C291.675 321.057 290.441 319.798 288.918 319.798C287.395 319.798 286.16 321.057 286.16 322.61C286.16 324.163 287.395 325.422 288.918 325.422Z" fill="#27272A"/>
<defs>
<linearGradient id="paint0_linear" x1="0.000757827" y1="339.739" x2="416" y2="339.739" gradientUnits="userSpaceOnUse">
<stop stop-color="#FFCC00"/>
<stop offset="1" stop-color="#FF9500"/>
</linearGradient>
<linearGradient id="paint1_linear" x1="60.0462" y1="312.035" x2="267.82" y2="312.035" gradientUnits="userSpaceOnUse">
<stop stop-color="#FFCC00"/>
<stop offset="1" stop-color="#FF9500"/>
</linearGradient>
<linearGradient id="paint2_linear" x1="267.821" y1="281.208" x2="332.002" y2="281.208" gradientUnits="userSpaceOnUse">
<stop stop-color="#FFCC00"/>
<stop offset="1" stop-color="#FF9500"/>
</linearGradient>
<linearGradient id="paint3_linear" x1="302.762" y1="294.962" x2="302.004" y2="259.263" gradientUnits="userSpaceOnUse">
<stop stop-color="#D2DFEF"/>
<stop offset="0.3567" stop-color="#D9E3F0"/>
<stop offset="0.8722" stop-color="#ECEFF1"/>
<stop offset="1" stop-color="#F2F2F2"/>
</linearGradient>
<linearGradient id="paint4_linear" x1="138.325" y1="323.022" x2="153.479" y2="323.022" gradientUnits="userSpaceOnUse">
<stop stop-color="#FFCC00"/>
<stop offset="1" stop-color="#FF9500"/>
</linearGradient>
<linearGradient id="paint5_linear" x1="281.341" y1="323.022" x2="296.495" y2="323.022" gradientUnits="userSpaceOnUse">
<stop stop-color="#FFCC00"/>
<stop offset="1" stop-color="#FF9500"/>
</linearGradient>
</defs>
</svg>
