<svg width="414" height="344" viewBox="0 0 414 344" fill="none" xmlns="http://www.w3.org/2000/svg">
<path d="M112.866 342.738L111.366 337.742L413.521 339.004L413.511 341.425L112.866 342.738Z" fill="url(#paint0_linear)"/>
<rect width="415.501" height="338.677" fill="white"/>
<path d="M416 34.3121V338.454H111.011C90.4775 317.32 72.6216 292.04 68.6217 263.255C64.6217 234.464 77.8056 201.997 105.117 190.131C128.178 180.108 155.501 186.212 179.687 179.109C207.964 170.799 228.802 142.951 228.194 114.28C227.9 100.451 223.175 87.0629 221.895 73.2863C220.071 53.6905 225.842 32.9867 239.81 18.7338C253.783 4.48087 276.38 -2.13563 295.377 4.71902C312.3 10.823 324.049 25.9146 339.899 34.3121C364.886 47.5451 390.022 45.6036 416 34.3121Z" fill="#F2F2F2"/>
<path opacity="0.47" d="M208.749 338.589V215.734H229.486V164.843H254.941V216.613H261.224V193.796H278.825V216.324H303.647V259.61H319.988V243.232L341.042 223.635V242.937H353.614V187.364H379.69V338.589H208.749Z" fill="#FFCC00"/>
<path opacity="0.47" d="M379.544 243.383V338.741H413.17V243.089H400.597V223.786L379.544 243.383Z" fill="#FFCC00"/>
<path d="M173.333 64.6077C173.345 64.6077 173.351 64.6016 173.363 64.6016L178.615 64.6999C178.775 64.6999 178.91 65.13 178.916 65.6461C178.922 66.1438 178.818 66.5494 178.677 66.5924C178.664 66.5924 178.658 66.5985 178.646 66.5985L173.388 66.5064C173.234 66.5002 173.099 66.0701 173.087 65.5478C173.087 65.0563 173.191 64.6507 173.333 64.6077Z" fill="white"/>
<path d="M167.798 61.9414L184.223 62.4943C184.297 66.6226 183.425 69.9953 182.229 70.3578C182.155 70.3824 182.076 70.3947 182.002 70.3885L170.4 70.1796C169.087 70.1551 167.884 66.3278 167.798 61.9414ZM178.677 66.5919C178.818 66.5489 178.922 66.1435 178.916 65.6458C178.91 65.1237 178.775 64.6936 178.615 64.6998L173.363 64.6015C173.351 64.6015 173.345 64.6015 173.333 64.6076C173.191 64.6506 173.087 65.0561 173.093 65.5537C173.099 66.0759 173.234 66.5059 173.394 66.5121L178.652 66.6042C178.658 66.5981 178.67 66.5981 178.677 66.5919Z" fill="#27272A"/>
<path d="M207.208 337.892L195.262 338.156C195.244 338.156 195.226 338.156 195.207 338.156L207.153 337.892C207.171 337.892 207.19 337.892 207.208 337.892Z" fill="#858585"/>
<path d="M207.208 325.181C207.208 325.175 207.208 325.169 207.208 325.163C207.208 325.157 207.208 325.157 207.208 325.151L203.558 118.795L202.693 70.035C202.693 69.9428 202.687 69.8507 202.687 69.7585C202.68 69.6664 202.68 69.5742 202.674 69.4821C202.674 69.4391 202.668 69.4022 202.668 69.3592C202.668 69.3469 202.668 69.3346 202.668 69.3224C202.668 69.2978 202.668 69.2732 202.662 69.2548C202.656 69.1811 202.65 69.1012 202.65 69.0275C202.644 68.9476 202.637 68.8739 202.631 68.794C202.625 68.7572 202.625 68.7203 202.619 68.6896C202.619 68.6773 202.619 68.665 202.613 68.6466C202.613 68.6159 202.607 68.5852 202.607 68.5544C202.601 68.4746 202.588 68.3947 202.582 68.3087C202.57 68.2227 202.564 68.1367 202.552 68.0507C202.552 68.0384 202.552 68.0323 202.545 68.02C202.545 68.0077 202.539 67.9954 202.539 67.9831C202.533 67.9217 202.521 67.8541 202.515 67.7927C202.502 67.7067 202.49 67.6145 202.472 67.5285C202.466 67.4855 202.46 67.4486 202.453 67.4056C202.447 67.3872 202.447 67.3688 202.441 67.3503C202.435 67.3258 202.429 67.2951 202.429 67.2643C202.41 67.1783 202.398 67.0923 202.38 67.0063C202.368 66.9326 202.349 66.865 202.337 66.7913C202.337 66.7852 202.331 66.7729 202.331 66.7667C202.331 66.7606 202.331 66.7544 202.325 66.7483C202.306 66.6623 202.288 66.5763 202.263 66.4964C202.245 66.4104 202.22 66.3244 202.196 66.2384C202.196 66.2322 202.19 66.2261 202.19 66.22C202.19 66.2138 202.183 66.2015 202.183 66.1954C202.165 66.1217 202.147 66.0541 202.122 65.9865C202.098 65.8944 202.067 65.8084 202.042 65.7223C202.042 65.7162 202.036 65.7101 202.036 65.6978C202.03 65.6855 202.03 65.6732 202.024 65.6609C201.999 65.5933 201.981 65.5258 201.956 65.4582C201.926 65.3783 201.895 65.2923 201.864 65.2186C201.864 65.2125 201.858 65.2063 201.858 65.2002C201.858 65.2002 201.858 65.194 201.852 65.194C201.815 65.0957 201.772 64.9974 201.736 64.9053C201.723 64.8746 201.705 64.8438 201.693 64.8131C201.674 64.7763 201.662 64.7394 201.644 64.7025C201.625 64.6657 201.613 64.635 201.594 64.5981C201.57 64.549 201.539 64.4998 201.515 64.4507C201.49 64.4077 201.472 64.3647 201.447 64.3278C201.441 64.3155 201.429 64.2971 201.423 64.2787C201.398 64.2418 201.374 64.2111 201.355 64.1742C201.312 64.1005 201.263 64.0329 201.22 63.9653C201.208 63.9469 201.196 63.9285 201.19 63.9162C201.171 63.8916 201.147 63.8732 201.128 63.8425C201.073 63.7749 201.024 63.7135 200.969 63.6582C200.938 63.6213 200.901 63.5906 200.87 63.5599C200.815 63.5107 200.76 63.4616 200.705 63.4247C200.674 63.4002 200.637 63.3756 200.601 63.351C200.539 63.3141 200.478 63.2834 200.416 63.2589C200.386 63.2466 200.355 63.2281 200.324 63.222C200.232 63.1913 200.134 63.1729 200.042 63.1729L188.096 63.437C188.195 63.437 188.287 63.4616 188.379 63.4862C188.409 63.4984 188.44 63.5107 188.471 63.523C188.532 63.5476 188.593 63.5783 188.655 63.6152C188.692 63.6336 188.722 63.6643 188.759 63.6889C188.814 63.7319 188.869 63.7749 188.925 63.824C188.962 63.8548 188.992 63.8916 189.023 63.9223C189.078 63.9776 189.127 64.0391 189.182 64.1066C189.213 64.1496 189.244 64.1865 189.274 64.2295C189.324 64.2971 189.366 64.3647 189.409 64.4384C189.44 64.4875 189.471 64.5367 189.501 64.592C189.526 64.635 189.544 64.678 189.569 64.721C189.612 64.8008 189.655 64.8868 189.698 64.9729C189.716 65.0097 189.728 65.0466 189.747 65.0834C189.802 65.2063 189.857 65.3353 189.906 65.4643C189.906 65.4705 189.913 65.4766 189.913 65.4828C189.968 65.6241 190.017 65.7715 190.072 65.9251C190.078 65.9374 190.078 65.9497 190.084 65.9619C190.133 66.1217 190.182 66.2875 190.232 66.4595C190.232 66.4657 190.238 66.478 190.238 66.4841C190.287 66.6623 190.33 66.8466 190.373 67.0309C190.373 67.037 190.379 67.0493 190.379 67.0555C190.416 67.2336 190.452 67.4179 190.489 67.6084C190.495 67.6268 190.495 67.6452 190.502 67.6637C190.532 67.8541 190.563 68.0445 190.587 68.2411C190.587 68.2534 190.587 68.2596 190.594 68.2718C190.618 68.4746 190.643 68.6835 190.661 68.8923C190.661 68.9046 190.661 68.923 190.667 68.9353C190.686 69.1442 190.704 69.3592 190.716 69.5742C190.716 69.5865 190.716 69.5988 190.716 69.6111C190.729 69.8323 190.735 70.0596 190.741 70.2869L191.606 119.047L195.257 325.403C195.257 325.415 195.257 325.421 195.257 325.433C195.263 325.783 195.257 326.127 195.244 326.465C195.244 326.521 195.238 326.576 195.238 326.631C195.238 326.668 195.232 326.699 195.232 326.736C195.22 326.914 195.207 327.092 195.195 327.264C195.195 327.282 195.189 327.295 195.189 327.313C195.171 327.497 195.152 327.676 195.128 327.854C195.128 327.866 195.128 327.872 195.122 327.884C195.097 328.05 195.079 328.216 195.048 328.376C195.042 328.401 195.042 328.425 195.036 328.444C195.011 328.603 194.98 328.757 194.95 328.904C194.944 328.935 194.937 328.96 194.931 328.99C194.901 329.138 194.864 329.285 194.827 329.42C194.821 329.439 194.815 329.463 194.809 329.482C194.772 329.629 194.729 329.771 194.686 329.906C194.686 329.912 194.68 329.918 194.68 329.924C194.637 330.059 194.594 330.188 194.545 330.311C194.539 330.323 194.539 330.336 194.533 330.348C194.483 330.471 194.44 330.581 194.391 330.692C194.385 330.71 194.373 330.735 194.367 330.753C194.318 330.858 194.269 330.962 194.213 331.054C194.201 331.073 194.195 331.091 194.183 331.11C194.134 331.196 194.085 331.276 194.029 331.355C194.023 331.368 194.017 331.38 194.005 331.392C193.95 331.472 193.888 331.546 193.827 331.62C193.809 331.638 193.79 331.656 193.772 331.681C193.729 331.73 193.68 331.773 193.637 331.81C193.612 331.835 193.588 331.853 193.563 331.872C193.526 331.902 193.483 331.927 193.447 331.951C193.41 331.976 193.373 332.001 193.336 332.019C193.275 332.05 193.213 332.08 193.146 332.099C193.06 332.123 192.974 332.142 192.882 332.142L204.828 331.878C204.871 331.878 204.914 331.872 204.951 331.865C205 331.859 205.043 331.847 205.092 331.835C205.141 331.822 205.19 331.798 205.239 331.779C205.251 331.773 205.263 331.761 205.282 331.755C205.319 331.736 205.355 331.712 205.392 331.687C205.417 331.675 205.441 331.663 205.466 331.644C205.484 331.632 205.497 331.62 205.515 331.601C205.54 331.583 205.564 331.558 205.589 331.54C205.607 331.521 205.625 331.509 205.65 331.491C205.675 331.466 205.699 331.435 205.724 331.411C205.742 331.392 205.76 331.374 205.779 331.349C205.785 331.337 205.797 331.331 205.803 331.319C205.852 331.263 205.895 331.202 205.944 331.14C205.951 331.134 205.951 331.128 205.957 331.122C205.963 331.11 205.975 331.097 205.981 331.085C206.012 331.042 206.043 330.993 206.073 330.95C206.092 330.919 206.116 330.882 206.135 330.846C206.147 330.827 206.153 330.809 206.165 330.79C206.171 330.778 206.178 330.766 206.19 330.753C206.227 330.686 206.264 330.618 206.294 330.545C206.3 330.526 206.313 330.508 206.319 330.489C206.325 330.471 206.337 330.452 206.343 330.428C206.362 330.391 206.374 330.36 206.392 330.323C206.423 330.25 206.454 330.176 206.484 330.102C206.484 330.096 206.491 330.09 206.491 330.084C206.497 330.072 206.497 330.059 206.503 330.047C206.527 329.992 206.546 329.93 206.57 329.869C206.595 329.801 206.619 329.727 206.638 329.66C206.638 329.654 206.644 329.648 206.644 329.641C206.644 329.635 206.644 329.635 206.65 329.629C206.675 329.549 206.699 329.463 206.724 329.377C206.736 329.328 206.754 329.273 206.767 329.218C206.773 329.199 206.779 329.175 206.785 329.156C206.791 329.138 206.791 329.125 206.797 329.113C206.822 329.021 206.84 328.929 206.865 328.837C206.871 328.8 206.877 328.763 206.889 328.732C206.895 328.702 206.902 328.671 206.908 328.646C206.914 328.609 206.92 328.579 206.926 328.548C206.945 328.444 206.963 328.339 206.981 328.235C206.981 328.222 206.988 328.204 206.988 328.192C206.994 328.167 206.994 328.142 207 328.118C207.012 328.05 207.024 327.983 207.03 327.915C207.043 327.823 207.055 327.725 207.067 327.633C207.067 327.62 207.067 327.614 207.073 327.602C207.073 327.596 207.073 327.596 207.073 327.59C207.086 327.485 207.098 327.387 207.11 327.282C207.116 327.209 207.122 327.135 207.129 327.061C207.129 327.043 207.135 327.031 207.135 327.012C207.135 327 207.135 326.988 207.141 326.975C207.147 326.877 207.159 326.773 207.165 326.668C207.172 326.607 207.172 326.545 207.178 326.484C207.178 326.447 207.184 326.41 207.184 326.373C207.184 326.349 207.19 326.318 207.19 326.293C207.19 326.269 207.19 326.238 207.19 326.207C207.208 325.869 207.215 325.532 207.208 325.181Z" fill="url(#paint1_linear)"/>
<path d="M200.048 63.1666L188.102 63.4309L143.811 62.2388L155.756 61.9746L200.048 63.1666Z" fill="url(#paint2_linear)"/>
<path d="M155.756 61.9746L143.811 62.239C143.792 62.239 143.774 62.239 143.761 62.239L155.707 61.9746C155.719 61.9746 155.738 61.9746 155.756 61.9746Z" fill="#858585"/>
<path d="M207.153 337.892L195.207 338.157L146.381 336.835L158.327 336.571L207.153 337.892Z" fill="url(#paint3_linear)"/>
<path d="M202.19 57.2683C203.687 57.3113 204.957 60.6041 205.03 64.628L209.736 330.679C209.804 334.402 208.822 337.437 207.491 337.842C207.38 337.873 207.27 337.891 207.153 337.885L158.321 336.564C156.824 336.521 155.548 333.228 155.48 329.204L150.775 63.1536C150.707 59.4308 151.689 56.3959 153.02 55.9905C153.131 55.9598 153.241 55.9413 153.358 55.9475L202.19 57.2683ZM202.699 70.0281C202.631 66.2745 201.447 63.2028 200.048 63.1659L155.757 61.9741C155.652 61.968 155.542 61.9864 155.444 62.0171C154.204 62.398 153.284 65.2301 153.345 68.7011L154.21 117.461L157.861 323.811C157.928 327.564 159.113 330.636 160.511 330.679L204.803 331.871C204.908 331.871 205.012 331.858 205.116 331.828C206.362 331.447 207.276 328.609 207.215 325.144L203.564 118.788L202.699 70.0281Z" fill="#FAE077"/>
<path d="M145.78 336.639C145.847 336.682 145.915 336.713 145.976 336.737C146.007 336.749 146.038 336.768 146.074 336.78C146.173 336.811 146.277 336.835 146.375 336.835L158.321 336.571C158.217 336.571 158.118 336.547 158.02 336.516C157.99 336.504 157.953 336.485 157.922 336.473C157.855 336.442 157.787 336.411 157.726 336.375C157.689 336.35 157.652 336.325 157.615 336.295C157.554 336.252 157.499 336.203 157.437 336.147C157.401 336.11 157.364 336.08 157.327 336.037C157.272 335.975 157.21 335.908 157.155 335.84C157.118 335.797 157.088 335.754 157.051 335.711C157.002 335.644 156.953 335.564 156.904 335.484C156.867 335.429 156.836 335.379 156.799 335.318C156.775 335.275 156.75 335.226 156.726 335.183C156.677 335.097 156.634 335.005 156.591 334.912C156.572 334.876 156.554 334.839 156.535 334.796C156.474 334.661 156.419 334.525 156.364 334.384C156.364 334.378 156.358 334.366 156.358 334.36C156.296 334.206 156.241 334.046 156.192 333.88C156.186 333.868 156.186 333.856 156.18 333.844C156.124 333.672 156.069 333.493 156.02 333.309C156.02 333.303 156.014 333.291 156.014 333.285C155.965 333.094 155.916 332.897 155.873 332.695C155.873 332.689 155.867 332.676 155.867 332.67C155.824 332.474 155.787 332.277 155.75 332.074C155.744 332.056 155.744 332.037 155.738 332.019C155.701 331.816 155.67 331.607 155.646 331.398C155.646 331.386 155.64 331.374 155.64 331.362C155.609 331.147 155.584 330.919 155.566 330.698C155.566 330.686 155.566 330.667 155.56 330.655C155.542 330.434 155.523 330.201 155.511 329.973C155.511 329.961 155.511 329.949 155.511 329.936C155.499 329.697 155.486 329.457 155.486 329.211L150.78 63.1606C150.78 63.1544 150.78 63.1421 150.78 63.136C150.774 62.7551 150.78 62.3865 150.799 62.024C150.799 61.9687 150.805 61.9073 150.805 61.8459C150.805 61.809 150.811 61.7722 150.811 61.7292C150.823 61.5387 150.836 61.3483 150.854 61.164C150.854 61.1455 150.86 61.1332 150.86 61.1148C150.879 60.9182 150.897 60.7216 150.922 60.5312C150.922 60.5251 150.922 60.5189 150.922 60.5128C150.946 60.3346 150.971 60.1565 151.001 59.9844C151.007 59.9599 151.007 59.9353 151.014 59.9046C151.044 59.7326 151.075 59.5728 151.106 59.407C151.112 59.3762 151.118 59.3455 151.124 59.3148C151.161 59.1551 151.198 59.0015 151.234 58.8479C151.241 58.8295 151.247 58.8049 151.253 58.7865C151.296 58.6329 151.339 58.4793 151.382 58.3319C151.382 58.3257 151.388 58.3196 151.388 58.3134C151.437 58.166 151.48 58.0309 151.535 57.8957C151.541 57.8834 151.547 57.8711 151.547 57.8588C151.596 57.7298 151.645 57.607 151.701 57.4902C151.713 57.4718 151.719 57.4472 151.731 57.4288C151.787 57.3121 151.842 57.2076 151.897 57.1032C151.909 57.0848 151.922 57.0663 151.928 57.0479C151.983 56.9558 152.032 56.8698 152.087 56.7899C152.093 56.7776 152.106 56.7592 152.112 56.7469C152.173 56.6609 152.234 56.581 152.302 56.5073C152.32 56.4827 152.339 56.4643 152.357 56.4459C152.406 56.3967 152.455 56.3476 152.504 56.3046C152.529 56.28 152.56 56.2554 152.584 56.237C152.627 56.2063 152.67 56.1755 152.713 56.151C152.75 56.1264 152.787 56.1018 152.83 56.0834C152.897 56.0465 152.965 56.0158 153.032 55.9974C153.124 55.9667 153.222 55.9544 153.314 55.9482L141.369 56.2124C141.326 56.2124 141.277 56.2186 141.234 56.2247C141.185 56.2308 141.135 56.2431 141.086 56.2616C141.031 56.28 140.982 56.2984 140.927 56.323C140.915 56.3291 140.896 56.3414 140.884 56.3476C140.847 56.366 140.804 56.3906 140.767 56.4151C140.743 56.4336 140.718 56.4397 140.694 56.4581C140.675 56.4704 140.663 56.4889 140.645 56.5012C140.62 56.5257 140.589 56.5442 140.565 56.5687C140.546 56.5872 140.522 56.5994 140.503 56.624C140.479 56.6486 140.448 56.6854 140.424 56.71C140.405 56.7285 140.387 56.753 140.362 56.7715C140.35 56.7837 140.344 56.7899 140.332 56.8022C140.283 56.8636 140.234 56.925 140.184 56.9926C140.178 56.9988 140.178 57.0049 140.172 57.0111C140.166 57.0233 140.154 57.0356 140.148 57.0479C140.117 57.0971 140.08 57.1401 140.049 57.1953C140.025 57.2322 140.007 57.2691 139.982 57.3059C139.97 57.3244 139.957 57.3428 139.945 57.3674C139.939 57.3797 139.927 57.3919 139.921 57.4104C139.884 57.4841 139.847 57.5578 139.81 57.6315C139.804 57.65 139.792 57.6684 139.786 57.693C139.773 57.7114 139.767 57.736 139.755 57.7544C139.737 57.7913 139.724 57.822 139.706 57.8588C139.675 57.9387 139.638 58.0124 139.608 58.0984C139.608 58.1046 139.602 58.1107 139.602 58.123C139.595 58.1353 139.589 58.1476 139.589 58.1599C139.565 58.2213 139.54 58.2827 139.522 58.3442C139.497 58.4179 139.473 58.4977 139.448 58.5715C139.448 58.5776 139.442 58.5837 139.442 58.5899V58.596C139.411 58.682 139.387 58.7742 139.362 58.8663C139.344 58.9216 139.332 58.9831 139.313 59.0384C139.307 59.0568 139.301 59.0814 139.295 59.0998C139.289 59.1182 139.289 59.1305 139.283 59.1489C139.258 59.2472 139.233 59.3455 139.209 59.45C139.203 59.4868 139.191 59.5298 139.184 59.5667C139.178 59.5974 139.172 59.6281 139.166 59.6588C139.16 59.6957 139.148 59.7326 139.141 59.7633C139.117 59.8739 139.098 59.9844 139.08 60.1012C139.08 60.1196 139.074 60.138 139.074 60.1565C139.068 60.181 139.068 60.2056 139.062 60.2363C139.049 60.31 139.037 60.3776 139.025 60.4513C139.013 60.5558 138.994 60.6541 138.982 60.7585C138.982 60.7708 138.982 60.7769 138.976 60.7892C138.976 60.7954 138.976 60.7954 138.976 60.8015C138.963 60.9121 138.951 61.0227 138.939 61.1332C138.933 61.2131 138.921 61.293 138.914 61.3728C138.914 61.3913 138.908 61.4097 138.908 61.422C138.908 61.4343 138.908 61.4466 138.902 61.4588C138.89 61.5694 138.884 61.6739 138.878 61.7844C138.871 61.852 138.871 61.9196 138.865 61.9872C138.865 62.024 138.859 62.0609 138.859 62.0978C138.859 62.1285 138.853 62.1592 138.853 62.1838C138.853 62.2145 138.853 62.2452 138.853 62.2759C138.841 62.6384 138.829 63.007 138.835 63.3879C138.835 63.394 138.835 63.4002 138.835 63.4002C138.835 63.4063 138.835 63.4063 138.835 63.4124L143.541 329.463C143.541 329.562 143.547 329.66 143.547 329.758C143.553 329.856 143.553 329.955 143.559 330.059C143.559 330.102 143.565 330.145 143.565 330.188C143.565 330.201 143.565 330.213 143.565 330.225C143.565 330.25 143.565 330.28 143.571 330.305C143.577 330.385 143.583 330.465 143.59 330.551C143.596 330.637 143.602 330.717 143.608 330.803C143.614 330.839 143.614 330.876 143.62 330.913C143.62 330.932 143.62 330.944 143.626 330.962C143.626 330.993 143.633 331.03 143.633 331.061C143.639 331.147 143.651 331.233 143.663 331.319C143.676 331.411 143.688 331.503 143.694 331.595C143.694 331.607 143.694 331.614 143.7 331.626C143.7 331.638 143.706 331.65 143.706 331.663C143.718 331.73 143.725 331.804 143.737 331.872C143.749 331.964 143.768 332.062 143.78 332.154C143.786 332.197 143.792 332.24 143.804 332.283C143.811 332.302 143.811 332.32 143.817 332.345C143.823 332.375 143.829 332.406 143.835 332.437C143.853 332.529 143.872 332.621 143.89 332.713C143.909 332.787 143.921 332.867 143.939 332.94C143.939 332.947 143.945 332.959 143.945 332.965C143.945 332.971 143.952 332.977 143.952 332.99C143.97 333.082 143.995 333.174 144.013 333.26C144.038 333.352 144.056 333.444 144.08 333.536C144.08 333.543 144.087 333.549 144.087 333.555C144.087 333.561 144.093 333.573 144.093 333.579C144.111 333.659 144.136 333.733 144.154 333.813C144.185 333.911 144.209 334.003 144.24 334.095C144.24 334.102 144.246 334.114 144.246 334.12C144.252 334.132 144.252 334.145 144.258 334.157C144.283 334.231 144.307 334.31 144.332 334.378C144.363 334.464 144.393 334.55 144.424 334.63C144.424 334.636 144.43 334.648 144.43 334.654C144.43 334.661 144.43 334.661 144.436 334.667C144.479 334.771 144.522 334.876 144.565 334.974C144.577 335.005 144.596 335.035 144.608 335.066C144.627 335.103 144.645 335.14 144.663 335.183C144.682 335.22 144.7 335.263 144.719 335.293C144.743 335.349 144.774 335.398 144.804 335.453C144.829 335.496 144.854 335.545 144.878 335.588C144.89 335.607 144.896 335.625 144.909 335.644C144.933 335.687 144.958 335.717 144.982 335.754C145.031 335.834 145.081 335.908 145.13 335.975C145.142 335.994 145.154 336.012 145.166 336.031C145.185 336.061 145.209 336.08 145.234 336.104C145.289 336.172 145.344 336.239 145.406 336.301C145.443 336.338 145.479 336.375 145.516 336.411C145.578 336.467 145.633 336.516 145.694 336.559C145.706 336.59 145.743 336.614 145.78 336.639Z" fill="url(#paint4_linear)"/>
<path d="M190.015 321.557C190.015 321.557 191.932 337.278 192.984 337.545C193.77 337.745 218.653 338.145 196.427 333.924L195.059 318.816L190.015 321.557Z" fill="#171A43"/>
<path d="M175.802 320.64C175.802 320.64 176.331 336.468 175.333 336.894C174.587 337.214 150.063 341.458 171.374 333.851L170.395 318.713L175.802 320.64Z" fill="#171A43"/>
<path d="M192.444 270.809C192.444 270.809 197.171 317.593 197.681 331.328C197.681 331.328 192.187 332.484 191.119 332.438L182.782 281.72L180.092 282.043L176.553 332.651C176.553 332.651 173.18 333.124 170.001 332.334C170.001 332.334 169.668 303.805 168.692 270.022L192.444 270.809Z" fill="#FFC154"/>
<g opacity="0.2">
<path opacity="0.2" d="M193.111 277.505C194.432 290.946 197.292 320.815 197.682 331.326C197.682 331.326 192.189 332.483 191.12 332.436L182.783 281.719C182.783 281.719 188.676 279.995 193.111 277.505Z" fill="#171A43"/>
</g>
<path d="M205.343 249.464C205.168 246.596 204.793 243.7 205.274 240.87C203.497 240.676 201.72 240.482 199.946 240.285C199.552 242.158 199.081 244.019 198.537 245.855C198.406 245.586 198.278 245.314 198.159 245.038C197.435 243.353 196.976 241.567 196.32 239.853C195.664 238.14 194.777 236.457 193.384 235.269C192.872 234.831 192.206 234.449 191.557 234.621C191.141 234.731 190.817 235.05 190.545 235.381C189.783 236.319 189.314 237.458 188.974 238.618C188.43 240.469 188.193 242.458 188.64 244.335C189.505 247.962 192.675 250.517 194.555 253.736C195.067 254.614 195.583 255.268 196.067 256.165C196.919 257.823 196.832 258.154 197.294 258.892C198.175 260.3 200.321 260.691 201.939 260.334C203.413 260.009 203.578 259.274 204.231 257.911C205.471 255.321 205.518 252.328 205.343 249.464Z" fill="#F46B29"/>
<path d="M201.239 241.621C201.264 241.536 201.214 241.446 201.13 241.421C201.045 241.396 200.955 241.446 200.933 241.53C199.687 245.805 198.975 250.233 198.815 254.69C198.781 255.644 198.778 256.651 199.121 257.567C199.162 257.676 199.209 257.783 199.253 257.889C199.396 258.23 199.534 258.552 199.512 258.887C199.496 259.115 199.337 259.362 199.131 259.468C199.075 259.5 199 259.525 198.918 259.518C199.009 259.315 199.09 259.09 199.1 258.849C199.112 258.543 198.972 258.167 198.64 258.027C198.531 257.98 198.419 257.967 198.322 257.958C198.263 257.952 198.206 257.945 198.15 257.93C197.688 257.811 197.529 257.189 197.416 256.61C196.966 254.311 195.786 252.276 194.649 250.308L193.69 248.651C193.681 248.785 193.665 248.904 193.637 249.067C193.631 249.098 193.618 249.12 193.606 249.145L194.374 250.471C195.498 252.416 196.663 254.427 197.104 256.673C197.207 257.192 197.376 258.064 198.075 258.239C198.144 258.258 198.219 258.268 198.291 258.274C198.375 258.283 198.456 258.293 198.522 258.321C198.712 258.402 198.794 258.646 198.787 258.837C198.778 259.077 198.669 259.315 198.562 259.543C198.528 259.619 198.553 259.706 198.625 259.747C198.725 259.809 198.837 259.837 198.95 259.837C199.059 259.837 199.175 259.809 199.287 259.75C199.59 259.59 199.818 259.243 199.84 258.902C199.865 258.493 199.709 258.121 199.556 257.761C199.512 257.658 199.468 257.554 199.428 257.451C199.103 256.591 199.109 255.619 199.14 254.699C199.29 250.274 199.999 245.874 201.239 241.621Z" fill="#E8E8E8"/>
<path d="M192.409 252.713C193.278 248.181 193.631 243.544 193.321 238.943C193.974 240.763 194.633 242.609 194.814 244.538C195.083 247.434 194.202 250.424 192.409 252.713Z" fill="#27272A"/>
<path d="M200.29 242.4C200.789 242.741 201.386 242.942 201.989 242.973C202.738 243.01 203.482 242.791 204.153 242.46C204.559 242.26 204.971 241.984 205.109 241.553C205.203 241.259 205.153 240.94 205.099 240.633C205.018 240.161 204.937 239.685 204.859 239.213C204.831 239.054 204.8 238.885 204.697 238.76C204.556 238.591 204.322 238.541 204.106 238.509C203.225 238.387 202.326 238.412 201.455 238.587C200.902 238.7 200.302 238.919 200.058 239.429C199.946 239.664 199.927 239.929 199.912 240.189C199.884 240.611 199.855 241.03 199.83 241.453C199.821 241.609 199.812 241.769 199.862 241.919C199.934 242.125 200.108 242.275 200.29 242.4Z" fill="#27272A"/>
<path d="M202.164 233.229C202.245 233.263 202.339 233.235 202.42 233.204C202.967 233.01 203.513 232.816 204.063 232.622C203.435 231.599 202.683 230.651 201.833 229.804C201.892 230.83 201.952 231.856 202.008 232.882C202.017 233.016 202.042 233.176 202.164 233.229Z" fill="#FFC088"/>
<path d="M201.614 237.383H196.895C196.617 237.383 196.392 237.157 196.392 236.879V227.366C196.392 227.087 196.617 226.862 196.895 226.862H201.614C201.892 226.862 202.117 227.087 202.117 227.366V236.876C202.12 237.157 201.892 237.383 201.614 237.383Z" fill="#27272A"/>
<path d="M196.917 236.694C197.049 236.947 197.386 236.991 197.67 236.994C198.757 237.013 199.844 236.916 200.928 236.816C201.046 236.806 201.174 236.791 201.265 236.716C201.368 236.631 201.406 236.494 201.434 236.362C201.855 234.498 201.958 232.563 201.743 230.664C200.297 230.524 198.851 230.386 197.405 230.245C197.217 230.226 197.005 230.217 196.87 230.348C196.742 230.474 196.736 230.674 196.739 230.852C196.777 232.675 196.814 234.495 196.852 236.319C196.855 236.45 196.861 236.581 196.917 236.694Z" fill="#27272A"/>
<path d="M204.507 238.445C204.491 236.972 204.466 234.467 204.454 233.104C204.448 232.397 203.901 232.078 203.286 231.915C202.736 231.771 196.889 230.564 196.892 230.552C196.842 230.849 196.961 231.158 197.145 231.396C197.33 231.634 197.576 231.818 197.82 231.997C197.545 232.194 197.267 232.394 197.048 232.653C196.83 232.913 196.677 233.244 196.699 233.582C196.717 233.92 196.942 234.258 197.27 234.342C197.07 234.602 196.861 234.883 196.836 235.208C196.811 235.537 197.058 235.906 197.383 235.878C197.264 236.272 197.198 236.681 197.195 237.094C197.992 237.451 198.591 238.217 198.741 239.074C198.941 239.071 199.122 238.927 199.219 238.752C199.225 238.739 199.232 238.723 199.238 238.711C199.731 239.168 200.262 239.577 200.65 240.134C201.946 240.331 203.308 240.187 204.494 239.643C204.513 239.246 204.513 238.842 204.507 238.445Z" fill="#FFC088"/>
<path d="M192.394 265.635H168.891V270.639H192.394V265.635Z" fill="#27272A"/>
<path d="M193.275 235.396C193.156 234.961 193.015 234.514 192.703 234.191C192.05 233.522 190.973 233.647 190.045 233.541C188.327 233.341 186.85 232.171 185.869 230.739C182.484 232.287 178.539 232.584 175.506 230.142C175.188 230.439 174.853 230.72 174.507 230.98C172.723 232.318 170.621 233.175 168.482 233.807C167.738 234.026 166.945 234.245 166.417 234.811C165.487 235.805 165.743 237.378 166.021 238.714C167.798 247.308 167.723 256.28 165.818 264.846C165.505 266.256 166.439 267.638 167.86 267.898C176.403 269.471 185.298 269.111 193.684 266.841C191.095 256.614 196.036 245.569 193.275 235.396Z" fill="#F46B29"/>
<path d="M181.01 242.251C179.139 242.852 177.149 243.074 175.191 242.902C175.188 242.142 175.188 241.385 175.185 240.625C177.118 240.465 179.042 240.215 180.95 239.877C180.969 240.668 180.988 241.46 181.01 242.251Z" fill="white"/>
<path d="M180.959 232.297C182.44 233.879 182.481 236.291 182.446 238.458C182.274 248.959 182.34 259.464 182.643 269.963C183.58 269.881 184.514 269.803 185.451 269.722C185.229 259.858 185.007 249.995 184.786 240.134C184.726 237.454 184.661 234.739 183.939 232.156C182.946 232.203 181.953 232.25 180.959 232.297Z" fill="#27272A"/>
<path d="M184.173 256.941C183.914 251.533 183.648 245.942 184.067 240.397C184.295 237.36 183.705 234.977 183.03 232.51C182.924 232.535 182.821 232.554 182.715 232.572C183.383 235.021 183.973 237.382 183.748 240.372C183.33 245.932 183.595 251.536 183.855 256.953C183.939 258.695 184.023 260.496 184.086 262.279C184.164 264.524 184.245 266.845 183.923 269.1C183.911 269.187 183.973 269.268 184.061 269.281C184.067 269.281 184.076 269.284 184.083 269.284C184.161 269.284 184.229 269.228 184.242 269.147C184.567 266.864 184.486 264.527 184.407 262.27C184.345 260.484 184.258 258.682 184.173 256.941Z" fill="#F46B29"/>
<path d="M174.579 230.878C176.321 232.239 178.483 233.055 180.688 233.19C182.893 233.324 185.135 232.774 187.031 231.632C186.572 231.241 186.216 230.728 186.01 230.162C184.389 230.875 182.621 231.338 180.856 231.191C179.092 231.044 177.333 230.234 176.303 228.792C175.925 229.624 175.322 230.35 174.579 230.878Z" fill="#27272A"/>
<path d="M188.796 216.811C189.78 220.226 189.134 224.073 187.091 226.978C186.663 227.588 186.154 228.173 185.479 228.489C184.233 229.073 182.772 228.604 181.478 228.132C180.023 227.6 178.511 227.031 177.446 225.902C176.444 224.839 175.956 223.385 175.713 221.943C175.426 220.22 175.472 218.356 176.369 216.858C177.484 214.991 179.733 214.043 181.903 213.937C184.074 213.831 186.207 214.431 188.297 215.029L188.796 216.811Z" fill="#27272A"/>
<path d="M186.295 231.119C186.133 230.913 185.977 230.7 185.836 230.481C184.859 228.964 184.35 227.203 183.853 225.468C182.038 225.496 180.221 225.521 178.406 225.549C178.025 227.006 177.235 228.323 176.213 229.44C179.002 231.601 182.894 231.823 186.295 231.119Z" fill="#FFC088"/>
<path d="M188.258 220.754C188.246 220.689 188.233 220.626 188.218 220.561C188.111 220.082 187.896 219.513 188.139 219.037C188.521 218.296 188.461 218.115 187.965 216.583L187.43 215.388C186.191 214.043 184.313 213.402 182.483 213.383C180.653 213.365 178.86 213.909 177.18 214.628C176.621 214.869 176.012 215.188 175.824 215.769C175.718 216.101 175.768 216.457 175.824 216.798C176.046 218.159 176.315 219.513 176.583 220.864C176.799 221.952 177.02 223.059 177.536 224.044C178.189 225.292 179.26 226.258 180.312 227.197C180.74 227.578 181.178 227.966 181.699 228.201C182.696 228.648 183.901 228.463 184.844 227.91C185.788 227.356 186.497 226.471 187.043 225.52C187.627 224.504 188.049 223.394 188.283 222.246C188.383 221.755 188.349 221.245 188.258 220.754Z" fill="#FFC088"/>
<path d="M180.307 219.463C180.982 218.772 181.844 218.45 182.765 218.525C182.799 218.384 182.868 218.25 182.968 218.143C181.906 218.015 180.804 218.478 180.104 219.291C180.185 219.332 180.251 219.394 180.307 219.463Z" fill="#0C4E5F"/>
<path d="M181.85 220.937C181.753 220.947 181.65 220.953 181.566 220.903C181.488 220.859 181.441 220.774 181.413 220.69C181.354 220.524 181.35 220.342 181.397 220.173C181.447 220.008 181.55 219.857 181.7 219.773C181.85 219.688 182.047 219.685 182.188 219.779C182.362 219.895 182.422 220.123 182.444 220.333C182.456 220.43 182.462 220.533 182.425 220.624C182.384 220.731 182.287 220.812 182.181 220.859C182.081 220.912 181.966 220.928 181.85 220.937Z" fill="#0C4E5F"/>
<path d="M182.236 220.249C182.18 220.152 182.077 220.061 181.964 220.083C181.845 220.108 181.786 220.24 181.767 220.359C181.755 220.443 181.751 220.531 181.78 220.612C181.808 220.694 181.867 220.766 181.948 220.794C182.073 220.838 182.22 220.753 182.274 220.634C182.327 220.512 182.302 220.365 182.236 220.249Z" fill="#27272A"/>
<path d="M181.726 220.347C181.767 220.35 181.805 220.328 181.833 220.297C181.886 220.237 181.898 220.134 181.839 220.083C181.801 220.052 181.745 220.049 181.704 220.071C181.66 220.093 181.632 220.137 181.623 220.184C181.607 220.256 181.654 220.344 181.726 220.347Z" fill="white"/>
<path d="M186.947 218.5C187.316 218.5 187.637 218.719 187.797 219.029C187.8 219.032 187.8 219.035 187.803 219.038C187.872 219.013 187.919 218.932 187.909 218.853C187.9 218.76 187.837 218.681 187.775 218.612C187.647 218.472 187.497 218.346 187.325 218.265C187.153 218.184 186.953 218.149 186.769 218.193C186.647 218.221 186.526 218.29 186.469 218.403C186.435 218.475 186.438 218.562 186.472 218.631C186.613 218.553 186.775 218.5 186.947 218.5Z" fill="#0C4E5F"/>
<path d="M186.854 220.187C186.841 220.068 186.888 219.946 186.954 219.846C187.047 219.702 187.213 219.58 187.382 219.617C187.494 219.642 187.582 219.736 187.628 219.843C187.675 219.949 187.688 220.068 187.694 220.184C187.703 220.325 187.703 220.487 187.594 220.575C187.5 220.65 187.366 220.638 187.254 220.603C187.06 220.541 186.876 220.39 186.854 220.187Z" fill="#0C4E5F"/>
<path d="M187.464 219.984C187.417 219.931 187.348 219.884 187.283 219.906C187.233 219.925 187.201 219.978 187.183 220.028C187.151 220.106 187.129 220.191 187.142 220.272C187.155 220.354 187.208 220.435 187.289 220.46C187.398 220.494 187.52 220.41 187.552 220.3C187.583 220.191 187.539 220.072 187.464 219.984Z" fill="#27272A"/>
<path d="M187.192 220.057C187.223 220.06 187.252 220.041 187.274 220.019C187.314 219.975 187.324 219.894 187.277 219.856C187.248 219.834 187.208 219.831 187.173 219.847C187.142 219.862 187.12 219.897 187.111 219.931C187.101 219.988 187.136 220.054 187.192 220.057Z" fill="white"/>
<path d="M187.441 220.698C186.435 220.116 184.611 220.367 183.524 220.551C182.438 220.736 181.135 221.389 180.154 221.893C179.88 222.033 179.592 222.202 179.477 222.487C179.408 222.653 179.408 222.834 179.408 223.012C179.414 223.925 179.458 224.839 179.533 225.746C179.558 226.043 179.589 226.343 179.711 226.615C179.839 226.893 180.054 227.115 180.286 227.319C180.635 227.628 181.029 227.897 181.469 228.054C182.178 228.307 184.099 228.72 184.799 228.444C185.498 228.169 185.436 228.141 185.945 227.591C186.96 226.496 187.75 225.373 188.294 223.982C188.534 223.366 188.803 222.268 188.559 221.924C188.378 221.671 187.716 220.858 187.441 220.698Z" fill="#27272A"/>
<path d="M184.271 220.786C182.712 220.905 181.204 221.549 180.029 222.578C180.179 224.079 180.217 225.414 180.413 226.915C180.595 227.247 180.976 227.772 181.235 227.966C182.05 228.579 182.859 228.72 183.868 228.876C185.458 229.12 186.52 228.091 187.391 226.737C188.262 225.383 188.637 223.447 188.806 221.846C187.382 220.704 186.089 220.648 184.271 220.786Z" fill="white"/>
<path d="M180.26 223.045C179.017 222.378 178.193 221.915 177.396 221.465L176.903 221.187L177.059 220.908L177.552 221.187C178.349 221.637 179.173 222.1 180.413 222.763L180.26 223.045Z" fill="white"/>
<path d="M177.64 224.536L177.499 224.826L180.622 226.349L180.763 226.06L177.64 224.536Z" fill="white"/>
<path d="M169.822 236.434C170.21 236.187 170.744 236.284 171.115 236.559C171.484 236.834 171.718 237.25 171.912 237.669C172.949 239.905 173.102 242.47 172.774 244.912C172.443 247.355 171.656 249.71 170.872 252.046C173.836 253.866 176.944 255.448 180.161 256.771C175.001 257.884 169.466 257.171 164.756 254.785C167.78 249.703 168.286 243.58 169.21 237.738C169.285 237.247 169.404 236.7 169.822 236.434Z" fill="#27272A"/>
<path d="M173.526 263.23C174.888 263.574 176.372 263.858 177.665 263.308C178.717 262.861 179.473 261.926 180.154 261.006C180.847 260.065 181.538 258.845 181.025 257.795C180.563 256.847 179.376 256.562 178.349 256.328C175.154 255.596 172.093 254.286 169.36 252.472C169.794 250.283 170.706 248.225 171.456 246.126C172.205 244.025 172.802 241.804 172.571 239.587C172.34 237.37 171.131 235.14 169.101 234.221C168.429 233.917 167.658 233.764 166.955 233.98C165.962 234.283 165.321 235.231 164.809 236.138C161.68 241.708 162.179 247.537 160.34 254.573C160.068 255.609 160.352 256.772 160.896 257.694C161.502 258.723 162.635 259.305 163.722 259.799C166.883 261.238 170.166 262.385 173.526 263.23Z" fill="#F46B29"/>
<path d="M177.324 261.075C177.218 261.713 177.262 262.438 177.708 262.908C178.008 263.22 178.439 263.367 178.852 263.499C179.22 263.617 179.604 263.739 179.985 263.677C180.382 263.611 180.719 263.358 181.01 263.08C181.744 262.376 182.275 261.463 182.525 260.474C182.665 259.918 182.712 259.302 182.44 258.798C182.181 258.317 181.663 258.016 181.128 257.907C180.226 257.722 179.258 258.048 178.574 258.667C177.89 259.286 177.474 260.168 177.324 261.075Z" fill="#27272A"/>
<path d="M177.18 263.282C177.121 263.282 177.065 263.251 177.037 263.195C176.865 262.86 176.653 262.879 176.225 262.945C175.925 262.992 175.581 263.045 175.21 262.917C173.814 262.438 172.342 262.107 170.921 261.784C169.522 261.469 168.076 261.143 166.692 260.674C164.072 259.789 161.48 258.573 160.262 255.686C160.227 255.605 160.265 255.511 160.346 255.477C160.427 255.442 160.521 255.48 160.555 255.561C161.723 258.329 164.244 259.508 166.795 260.371C168.163 260.834 169.603 261.159 170.993 261.472C172.424 261.794 173.901 262.128 175.313 262.613C175.613 262.716 175.9 262.673 176.175 262.629C176.578 262.566 177.037 262.494 177.321 263.048C177.362 263.126 177.33 263.223 177.252 263.264C177.23 263.276 177.205 263.282 177.18 263.282Z" fill="#E8E8E8"/>
<path d="M177.95 217.482C180.422 218.749 185.986 216.532 188.458 215.264C183.266 208.928 177.641 212.202 175.477 214.631C172.757 217.419 175.58 223.185 177.331 225.72C179.804 223.945 178.774 219.489 177.95 217.482Z" fill="#27272A"/>
<path d="M187.747 261.992C187.519 261.36 187.12 259.738 186.483 259.436C185.688 259.059 184.758 259.017 183.883 258.972C182.956 258.924 182.01 258.81 181.093 259.002C180.404 259.145 179.854 259.427 179.387 259.924C178.892 260.45 178.615 260.86 178.644 261.561C178.673 262.261 179.912 263.479 180.665 263.506C180.443 263.605 180.378 263.889 180.462 264.104C180.546 264.32 180.736 264.481 180.916 264.637C181.321 264.978 181.727 265.322 182.135 265.664C182.435 265.915 182.753 266.175 183.146 266.247C183.648 266.337 184.15 266.101 184.575 265.834C185.337 265.358 186.193 265.026 186.753 264.35C187.429 263.533 188.101 262.958 187.747 261.992Z" fill="#FFC088"/>
<defs>
<linearGradient id="paint0_linear" x1="112.875" y1="340.241" x2="413.511" y2="341.502" gradientUnits="userSpaceOnUse">
<stop stop-color="#FFCC00"/>
<stop offset="1" stop-color="#FF9500"/>
</linearGradient>
<linearGradient id="paint1_linear" x1="196.065" y1="326.752" x2="198.486" y2="126.086" gradientUnits="userSpaceOnUse">
<stop stop-color="#FFCC00"/>
<stop offset="1" stop-color="#D17E08"/>
</linearGradient>
<linearGradient id="paint2_linear" x1="143.808" y1="62.7034" x2="200.047" y2="62.7034" gradientUnits="userSpaceOnUse">
<stop stop-color="#FFCC00"/>
<stop offset="1" stop-color="#FF9500"/>
</linearGradient>
<linearGradient id="paint3_linear" x1="146.38" y1="337.364" x2="207.156" y2="337.364" gradientUnits="userSpaceOnUse">
<stop stop-color="#FFCC00"/>
<stop offset="1" stop-color="#FF9500"/>
</linearGradient>
<linearGradient id="paint4_linear" x1="147.004" y1="68.812" x2="150.232" y2="337.173" gradientUnits="userSpaceOnUse">
<stop stop-color="#FFCC00"/>
<stop offset="1" stop-color="#AB6708"/>
</linearGradient>
</defs>
</svg>
