<svg width="414" height="344" viewBox="0 0 414 344" fill="none" xmlns="http://www.w3.org/2000/svg">
<path d="M414.853 60.7516V341.846H-1V14.7333C52.3077 -8.27991 126.316 -1.22836 163.537 14.7333C178.139 20.9978 189.071 29.4981 201.82 36.92C255.293 68.0356 344.187 77.979 414.853 60.7516Z" fill="#F2F2F2"/>
<path opacity="0.47" d="M-0.5 341.882V217.096H17.7614V165.404H43.2474V217.988H49.5379V194.813H67.1607V217.695H92.0123V261.661H108.373V245.026L129.452 225.12V244.726H142.039V188.28H168.146V341.882H-0.5Z" fill="#FFCC00"/>
<path opacity="0.47" d="M168 341.882V217.096H188.761V165.404H214.247V217.988H220.538V194.813H238.161V217.695H263.012V261.661H279.373V245.026L300.452 225.12V244.726H313.039V188.28H339.146V341.882H168Z" fill="#FFCC00"/>
<path opacity="0.47" d="M339 217.096V341.882H415V194.813H391.538V217.988H385.247V165.404H359.761V217.096H339Z" fill="#FFCC00"/>
<path d="M0.00160376 344L0 341.541L414 338.926V341.384L0.00160376 344Z" fill="url(#paint0_linear)"/>
<path d="M208.27 235.556L205.057 230.62C207.048 229.254 208.7 227.588 209.922 225.541L212.963 231.7C211.298 232.442 209.72 233.615 208.27 235.556Z" fill="#F8A595"/>
<path d="M219.223 226.552C219.223 226.552 219.641 229.441 219.825 230.601L218.105 230.371L219.223 226.552Z" fill="#F8A595"/>
<path d="M218.909 229.965C218.707 230.758 217.656 233.235 217.656 233.235C216.962 233.853 216.336 233.984 215.42 233.884C213.197 233.634 211.126 232.405 209.707 230.658C208.282 228.911 207.496 226.67 207.342 224.405C207.152 221.529 208.239 218.284 210.825 217.092C213.43 215.894 218.246 216.917 219.751 219.544C221.336 222.284 219.634 227.126 218.909 229.965Z" fill="#F7A08C"/>
<path d="M202.588 298.198L200.309 302.716L199.535 305.006L213.75 309.979C214.198 308.656 213.59 307.171 212.294 306.447L209.37 304.806L207.539 301.275V300.195L202.588 298.198Z" fill="#27272A"/>
<path d="M193.521 268.796C194.553 268.74 197.391 269.227 198.214 269.208C198.89 267.916 210.727 240.866 208.264 235.562L206.39 230.832C206.39 230.832 201.267 225.316 191.138 242.339C185.222 252.279 180.154 259.187 178.44 264.291C181.659 265.882 188.724 269.058 193.521 268.796Z" fill="#F46B29"/>
<path d="M218.111 278.774C218.946 273.732 198.988 267.505 198.988 267.505C198.988 267.505 196.292 268.709 196.304 268.678C195.487 268.684 194.578 268.697 193.552 268.728C188.791 268.872 181.715 265.739 178.484 264.173C177.347 267.561 177.2 271.573 180.308 273.757C187.772 279.018 208.608 279.598 208.608 279.598L202.318 298.854L207.085 301.063C207.078 301.063 217.276 283.816 218.111 278.774Z" fill="url(#paint1_linear)"/>
<path d="M207.539 228.58C207.539 228.58 206.882 226.908 206.409 225.548C205.936 224.187 205.408 220.918 205.457 220.094C205.512 219.264 213.958 219.62 213.958 219.62L220.261 222.122L213.86 222.078L212.312 225.897C212.312 225.897 211.508 223.988 210.297 224.736C209.087 225.485 209.628 226.852 210.027 227.395C210.439 227.938 207.539 228.58 207.539 228.58Z" fill="#350FA2"/>
<path d="M219.641 222.115C219.665 222.29 213.866 221.479 213.866 221.479L205.469 221.254C205.469 221.254 204.431 212.487 211.716 212.113C224.1 211.476 222.534 221.248 222.687 222.028C222.829 222.808 219.641 222.115 219.641 222.115Z" fill="url(#paint2_linear)"/>
<path d="M208.221 218.183C208.221 218.183 213.86 214.239 220.98 221.072C220.98 221.066 214.358 216.305 208.221 218.183Z" fill="url(#paint3_linear)"/>
<path d="M220.808 219.782C220.808 219.782 218.676 212.718 210.936 214.659C210.936 214.652 217.595 214.316 220.808 219.782Z" fill="url(#paint4_linear)"/>
<path d="M180.492 257.882L180.345 257.046C187.163 255.823 195.604 253.864 200.34 249.515C202.846 247.212 205.444 242.994 205.322 239.718C205.26 238.17 204.615 236.904 203.405 235.955C202.121 234.951 199.879 234.913 197.901 234.882C196.789 234.863 195.739 234.844 194.879 234.67L195.045 233.84C195.831 234.002 196.844 234.015 197.913 234.033C200.02 234.071 202.41 234.108 203.915 235.281C205.328 236.386 206.083 237.871 206.157 239.68C206.31 243.674 203.098 248.123 200.905 250.139C196.009 254.638 187.427 256.641 180.492 257.882Z" fill="#FF9500"/>
<path d="M180.511 260.266L158.212 246.126L174.196 220.118L196.495 234.258L180.511 260.266Z" fill="#FFCC00"/>
<path d="M194.744 237.103L172.445 222.964L172.894 222.246L195.186 236.386L194.744 237.103Z" fill="#FF9500"/>
<path d="M200.745 319.046C200.616 319.046 200.494 319.021 200.365 318.971C199.824 318.759 199.554 318.141 199.763 317.586L203.589 307.521C203.798 306.972 204.406 306.691 204.953 306.909C205.494 307.121 205.764 307.739 205.555 308.294L201.728 318.359C201.568 318.79 201.169 319.046 200.745 319.046Z" fill="#FF9500"/>
<path d="M210.764 311.152C210.648 311.152 210.537 311.133 210.42 311.096L201.212 307.876C200.659 307.683 200.371 307.071 200.561 306.516C200.751 305.954 201.347 305.661 201.9 305.854L211.108 309.074C211.661 309.268 211.95 309.879 211.759 310.435C211.612 310.871 211.207 311.152 210.764 311.152Z" fill="#FF9500"/>
<path d="M199.75 329.866C199.197 329.866 198.73 329.43 198.7 328.855L198.257 321.074C198.227 320.482 198.669 319.976 199.246 319.945C199.842 319.914 200.327 320.363 200.358 320.95L200.8 328.731C200.831 329.323 200.389 329.829 199.811 329.86C199.793 329.866 199.768 329.866 199.75 329.866Z" fill="#6D6E71"/>
<path d="M200.063 321.436L167.316 322.672C165.025 322.759 163.12 320.918 163.12 318.609V316.269C163.12 313.973 165.012 312.132 167.297 312.207L200.045 313.318C202.226 313.393 203.952 315.19 203.952 317.38C203.952 319.564 202.232 321.355 200.063 321.436Z" fill="#FFCC00"/>
<path d="M250.152 294.012C262.874 294.012 273.218 304.52 273.218 317.443C273.218 330.366 262.874 340.874 250.152 340.874C237.43 340.874 227.086 330.366 227.086 317.443C227.086 304.52 237.43 294.012 250.152 294.012ZM272.862 317.443C272.862 304.719 262.671 294.367 250.146 294.367C237.621 294.367 227.43 304.719 227.43 317.443C227.43 330.166 237.621 340.518 250.146 340.518C262.671 340.512 272.862 330.16 272.862 317.443Z" fill="#27272A"/>
<path d="M250.152 296.152C261.707 296.152 271.111 305.706 271.111 317.443C271.111 329.18 261.707 338.734 250.152 338.734C238.597 338.734 229.193 329.18 229.193 317.443C229.193 305.706 238.597 296.152 250.152 296.152ZM270.933 317.443C270.933 305.787 261.627 296.333 250.152 296.333C238.677 296.333 229.371 305.787 229.371 317.443C229.371 329.099 238.677 338.553 250.152 338.553C261.627 338.553 270.933 329.099 270.933 317.443Z" fill="#27272A"/>
<path d="M250.152 296.332C261.627 296.332 270.933 305.786 270.933 317.442C270.933 329.098 261.627 338.551 250.152 338.551C238.677 338.551 229.371 329.098 229.371 317.442C229.371 305.786 238.671 296.332 250.152 296.332ZM270.755 317.442C270.755 305.898 261.516 296.513 250.152 296.513C238.788 296.513 229.549 305.898 229.549 317.442C229.549 328.986 238.788 338.37 250.152 338.37C261.516 338.37 270.755 328.986 270.755 317.442Z" fill="#27272A"/>
<path d="M250.416 296.332H249.888V338.558H250.416V296.332Z" fill="#27272A"/>
<path d="M270.927 317.174H229.365V317.71H270.927V317.174Z" fill="#27272A"/>
<path d="M264.666 302.345L235.248 332.178L235.621 332.558L265.039 302.725L264.666 302.345Z" fill="#27272A"/>
<path d="M235.637 302.317L235.263 302.696L264.651 332.56L265.024 332.181L235.637 302.317Z" fill="#27272A"/>
<path d="M258.157 297.956L241.699 336.726L242.184 336.938L258.643 298.168L258.157 297.956Z" fill="#27272A"/>
<path d="M231.197 308.825L230.987 309.317L269.141 326.066L269.351 325.573L231.197 308.825Z" fill="#27272A"/>
<path d="M269.357 309.397L230.724 324.979L230.919 325.477L269.552 309.896L269.357 309.397Z" fill="#27272A"/>
<path d="M242.732 297.735L242.241 297.933L257.561 337.18L258.052 336.982L242.732 297.735Z" fill="#27272A"/>
<path d="M252.751 317.442C252.751 318.902 251.59 320.082 250.152 320.082C248.715 320.082 247.554 318.902 247.554 317.442C247.554 315.982 248.715 314.803 250.152 314.803C251.583 314.803 252.751 315.982 252.751 317.442Z" fill="#3604A3"/>
<path d="M170.787 294.012C183.508 294.012 193.853 304.52 193.853 317.443C193.853 330.366 183.508 340.874 170.787 340.874C158.065 340.874 147.72 330.366 147.72 317.443C147.72 304.52 158.065 294.012 170.787 294.012ZM193.497 317.443C193.497 304.719 183.306 294.367 170.78 294.367C158.255 294.367 148.064 304.719 148.064 317.443C148.064 330.166 158.255 340.518 170.78 340.518C183.306 340.518 193.497 330.16 193.497 317.443Z" fill="#27272A"/>
<path d="M170.786 296.152C182.341 296.152 191.746 305.706 191.746 317.443C191.746 329.18 182.341 338.734 170.786 338.734C159.232 338.734 149.827 329.18 149.827 317.443C149.827 305.706 159.232 296.152 170.786 296.152ZM191.568 317.443C191.568 305.787 182.261 296.333 170.786 296.333C159.312 296.333 150.005 305.787 150.005 317.443C150.005 329.099 159.312 338.553 170.786 338.553C182.261 338.553 191.568 329.099 191.568 317.443Z" fill="#27272A"/>
<path d="M170.787 296.332C182.261 296.332 191.568 305.786 191.568 317.442C191.568 329.098 182.261 338.551 170.787 338.551C159.312 338.551 150.005 329.098 150.005 317.442C150.005 305.786 159.306 296.332 170.787 296.332ZM191.39 317.442C191.39 305.898 182.151 296.513 170.787 296.513C159.422 296.513 150.184 305.898 150.184 317.442C150.184 328.986 159.422 338.37 170.787 338.37C182.151 338.37 191.39 328.986 191.39 317.442Z" fill="#27272A"/>
<path d="M171.051 296.332H170.522V338.558H171.051V296.332Z" fill="#27272A"/>
<path d="M191.568 317.174H149.999V317.71H191.568V317.174Z" fill="#27272A"/>
<path d="M185.299 302.342L155.881 332.175L156.254 332.555L185.672 302.722L185.299 302.342Z" fill="#27272A"/>
<path d="M156.272 302.316L155.899 302.695L185.286 332.559L185.659 332.18L156.272 302.316Z" fill="#27272A"/>
<path d="M178.772 297.938L162.318 336.708L162.803 336.92L179.257 298.15L178.772 297.938Z" fill="#6099DC"/>
<path d="M151.828 308.829L151.618 309.321L189.778 326.072L189.988 325.579L151.828 308.829Z" fill="#6099DC"/>
<path d="M189.988 309.398L151.36 324.977L151.555 325.475L190.183 309.896L189.988 309.398Z" fill="#6099DC"/>
<path d="M163.365 297.732L162.874 297.93L178.194 337.177L178.685 336.979L163.365 297.732Z" fill="#6099DC"/>
<path d="M173.379 317.442C173.379 318.902 172.218 320.082 170.78 320.082C169.343 320.082 168.182 318.902 168.182 317.442C168.182 315.982 169.343 314.803 170.78 314.803C172.218 314.803 173.379 315.982 173.379 317.442Z" fill="#3604A3"/>
<path d="M250.152 318.509C250.072 318.509 249.998 318.503 249.918 318.484C239.611 316.107 233.321 303.527 233.056 302.99C233.044 302.965 233.032 302.934 233.02 302.903L228.388 290.985C228.345 290.885 228.326 290.773 228.314 290.66L227.638 280.333C227.602 279.74 228.038 279.235 228.621 279.191C229.205 279.141 229.702 279.597 229.745 280.19L230.415 290.348L234.967 302.067C235.348 302.822 241.325 314.297 250.391 316.394C250.957 316.525 251.313 317.099 251.184 317.673C251.067 318.172 250.631 318.509 250.152 318.509Z" fill="#FF9500"/>
<path d="M230.833 280.67H225.753C225.169 280.67 224.696 280.189 224.696 279.597C224.696 279.004 225.169 278.523 225.753 278.523H230.833C231.416 278.523 231.889 279.004 231.889 279.597C231.883 280.189 231.41 280.67 230.833 280.67Z" fill="#FF9500"/>
<path d="M228.29 279.847C227.706 279.847 227.233 279.367 227.233 278.774V276.022C227.233 275.435 227.694 274.961 228.271 274.949C231.275 274.893 234.267 274.088 234.42 273.289C234.678 271.935 234.285 269.77 233.941 268.378C231.466 269.033 225.01 270.612 219.598 270.893C219.008 270.93 218.523 270.468 218.492 269.876C218.461 269.283 218.91 268.784 219.493 268.753C225.962 268.416 234.316 266.063 234.396 266.038C234.942 265.882 235.514 266.194 235.686 266.75C235.741 266.924 237 271.055 236.49 273.701C235.993 276.272 231.711 276.902 229.346 277.052V278.774C229.346 279.367 228.873 279.847 228.29 279.847Z" fill="#FF9500"/>
<path d="M224.905 322.87H221.797C221.213 322.87 220.74 322.39 220.74 321.797C220.74 321.204 221.213 320.724 221.797 320.724H223.535C222.202 314.865 223.572 309.898 224.764 306.591C230.507 291.933 243.862 289.768 244.427 289.687C245.011 289.599 245.539 290.005 245.625 290.591C245.711 291.178 245.312 291.721 244.74 291.808C244.587 291.833 232.006 293.917 226.742 307.358C225.47 310.89 224.217 315.713 225.925 321.491C226.023 321.816 225.962 322.165 225.759 322.44C225.55 322.708 225.237 322.87 224.905 322.87Z" fill="#FF9500"/>
<path d="M204.069 303.583H194.897C194.314 303.583 193.841 303.102 193.841 302.509C193.841 301.917 194.314 301.436 194.897 301.436H203.688L227.62 281.194C228.069 280.813 228.732 280.875 229.107 281.331C229.482 281.787 229.42 282.46 228.972 282.841L204.744 303.327C204.554 303.495 204.314 303.583 204.069 303.583Z" fill="#FF9500"/>
<path d="M206.323 315.071H198.214C197.631 315.071 197.158 314.59 197.158 313.997C197.158 313.404 197.631 312.924 198.214 312.924H205.868L228.498 288.314C228.898 287.883 229.561 287.858 229.991 288.264C230.415 288.669 230.44 289.343 230.04 289.78L207.103 314.727C206.894 314.946 206.618 315.071 206.323 315.071Z" fill="#FF9500"/>
<path d="M199.209 318.508C198.755 318.508 198.331 318.203 198.196 317.741L186.635 277.737C186.469 277.169 186.789 276.576 187.348 276.408C187.907 276.239 188.49 276.564 188.656 277.132L200.217 317.136C200.383 317.704 200.063 318.296 199.504 318.465C199.406 318.496 199.308 318.508 199.209 318.508Z" fill="#FF9500"/>
<path d="M201.808 317.442C201.808 318.902 200.647 320.082 199.21 320.082C197.772 320.082 196.611 318.902 196.611 317.442C196.611 315.982 197.772 314.803 199.21 314.803C200.647 314.803 201.808 315.982 201.808 317.442Z" fill="#808285"/>
<path d="M191.936 293.337H151.467C150.884 293.337 150.411 292.856 150.411 292.264C150.411 291.671 150.884 291.19 151.467 291.19H191.936C192.52 291.19 192.993 291.671 192.993 292.264C192.993 292.863 192.52 293.337 191.936 293.337Z" fill="#FF9500"/>
<path d="M170.787 318.509C170.744 318.509 170.701 318.509 170.651 318.503C170.277 318.453 169.951 318.203 169.81 317.848L159.607 292.676C159.385 292.127 159.643 291.503 160.178 291.278C160.718 291.053 161.333 291.315 161.554 291.858L171.051 315.289L188.539 291.621C188.889 291.147 189.553 291.053 190.014 291.409C190.48 291.765 190.573 292.432 190.222 292.907L171.622 318.078C171.425 318.353 171.112 318.509 170.787 318.509Z" fill="#FF9500"/>
<path d="M145.331 324.593H142.057C141.473 324.593 141 324.113 141 323.52C141 322.927 141.473 322.447 142.057 322.447H144.157C142.014 298.947 160.276 291.94 160.467 291.871C161.013 291.671 161.622 291.958 161.818 292.514C162.015 293.069 161.732 293.681 161.185 293.887C160.461 294.155 143.691 300.676 146.375 323.395C146.412 323.701 146.32 324.007 146.117 324.231C145.92 324.462 145.632 324.593 145.331 324.593Z" fill="#FF9500"/>
<path d="M205.082 331.152C205.039 331.152 204.99 331.152 204.941 331.139L195.383 329.854C194.805 329.779 194.4 329.236 194.473 328.649C194.547 328.063 195.075 327.645 195.659 327.726L205.217 329.011C205.795 329.086 206.2 329.629 206.126 330.216C206.053 330.758 205.598 331.152 205.082 331.152Z" fill="#FF9500"/>
<path d="M178.318 272.908L179.614 276.071C180.007 277.032 180.935 277.662 181.961 277.662H195.493C195.592 277.662 195.659 277.563 195.622 277.469L195.198 276.302C194.682 274.873 193.386 273.881 191.894 273.763L178.453 272.708C178.355 272.708 178.275 272.814 178.318 272.908Z" fill="#27272A"/>
<path d="M196.015 320.395L194.498 325.131L194.093 327.477L208.633 330.054C208.866 328.7 208.049 327.358 206.685 326.865L203.602 325.736L201.292 322.603L201.126 321.561L196.015 320.395Z" fill="#27272A"/>
<path d="M194.897 271.316C194.897 271.316 201.955 283.74 204.818 292.875L201.237 322.671L195.628 321.623L197.932 294.186C197.932 294.186 180.554 274.624 179.884 272.084L194.897 271.316Z" fill="url(#paint5_linear)"/>
<path d="M202.017 256.365C201.728 251.092 203.651 246.487 204.326 241.577C203.35 238.775 201.556 237.883 198.595 239.667C197.342 243.941 194.78 250.35 195.855 256.009C196.034 256.939 196.236 257.881 196.715 258.699C197.201 259.529 197.938 260.178 198.693 260.771C204.271 265.107 211.127 266.998 217.982 268.533C218.246 267.235 218.75 265.694 219.014 264.396C213.479 261.544 207.822 258.599 202.017 256.365Z" fill="url(#paint6_linear)"/>
<path d="M227.976 268.808C227.288 267.741 226.478 266.755 225.568 265.876C225.304 265.62 225.016 265.364 224.665 265.264C224.291 265.158 223.891 265.245 223.504 265.314C222.024 265.564 219.991 265.102 218.553 264.665L217.245 267.916C218.387 269.052 220.003 269.682 221.606 269.601C221.705 269.769 221.901 270 222.19 269.919L222.122 270.531C222.417 271.685 223.805 272.265 224.96 272.034C226.115 271.804 227.061 270.98 227.89 270.137C228.032 269.994 228.179 269.832 228.228 269.632C228.296 269.345 228.136 269.058 227.976 268.808Z" fill="#F7A08C"/>
<path d="M205.457 220.842L214.051 221.066L222.681 222.021C222.681 222.021 222.952 222.427 221.496 222.383C220.04 222.339 214.051 221.616 214.051 221.616L205.469 221.254L205.457 220.842Z" fill="url(#paint7_linear)"/>
<path d="M212.14 229.341L210.967 228.779C209.259 227.956 208.129 226.259 208.006 224.343L207.803 221.098L208.639 221.042L208.841 224.287C208.94 225.897 209.892 227.319 211.329 228.012L212.502 228.574L212.14 229.341Z" fill="url(#paint8_linear)"/>
<path d="M212.736 232.861H211.901L211.919 226.428L213.467 221.354L214.266 221.604L212.736 226.615V232.861Z" fill="url(#paint9_linear)"/>
<defs>
<linearGradient id="paint0_linear" x1="0.000754183" y1="341.464" x2="414" y2="341.464" gradientUnits="userSpaceOnUse">
<stop stop-color="#FFCC00"/>
<stop offset="1" stop-color="#FF9500"/>
</linearGradient>
<linearGradient id="paint1_linear" x1="197.351" y1="269.107" x2="203.376" y2="314.3" gradientUnits="userSpaceOnUse">
<stop stop-color="#7D7D80"/>
<stop offset="1" stop-color="#27272A"/>
</linearGradient>
<linearGradient id="paint2_linear" x1="205.418" y1="217.239" x2="222.687" y2="217.239" gradientUnits="userSpaceOnUse">
<stop stop-color="#FFC572"/>
<stop offset="1" stop-color="#CE7E0D"/>
</linearGradient>
<linearGradient id="paint3_linear" x1="220.591" y1="219.894" x2="206.602" y2="216.716" gradientUnits="userSpaceOnUse">
<stop stop-color="#FFC572"/>
<stop offset="1" stop-color="#FF9500"/>
</linearGradient>
<linearGradient id="paint4_linear" x1="221.055" y1="217.853" x2="207.066" y2="214.675" gradientUnits="userSpaceOnUse">
<stop stop-color="#FFCC00"/>
<stop offset="1" stop-color="#FF9500"/>
</linearGradient>
<linearGradient id="paint5_linear" x1="190.705" y1="269.735" x2="196.522" y2="313.367" gradientUnits="userSpaceOnUse">
<stop stop-color="#7D7D80"/>
<stop offset="1" stop-color="#27272A"/>
</linearGradient>
<linearGradient id="paint6_linear" x1="212.178" y1="248.621" x2="203.679" y2="260.227" gradientUnits="userSpaceOnUse">
<stop stop-color="#FFCC00"/>
<stop offset="1" stop-color="#F46B29"/>
</linearGradient>
<linearGradient id="paint7_linear" x1="226.997" y1="223.81" x2="201.011" y2="219.576" gradientUnits="userSpaceOnUse">
<stop stop-color="#FFC572"/>
<stop offset="1" stop-color="#FF9500"/>
</linearGradient>
<linearGradient id="paint8_linear" x1="210.151" y1="229.343" x2="210.151" y2="221.042" gradientUnits="userSpaceOnUse">
<stop stop-color="#FFC572"/>
<stop offset="0.919792" stop-color="#FF9500"/>
<stop offset="1" stop-color="#FF9500"/>
</linearGradient>
<linearGradient id="paint9_linear" x1="213.082" y1="232.858" x2="213.082" y2="221.354" gradientUnits="userSpaceOnUse">
<stop stop-color="#FFC572"/>
<stop offset="1" stop-color="#FF9500"/>
</linearGradient>
</defs>
</svg>
