<svg width="414" height="344" viewBox="0 0 414 344" fill="none" xmlns="http://www.w3.org/2000/svg">
<rect width="406.697" height="337.146" transform="matrix(0.999867 0.0162785 -0.0157301 0.999876 11.3566 0)" fill="white"/>
<path d="M-5.07557 58.2695C-5.24778 73.6621 -5.07559 335.894 -5.07559 335.894L300.441 335.894C319.585 315.319 331.497 290.744 335.088 262.849C338.68 234.95 326.129 203.585 300.441 192.243C278.75 182.663 253.152 188.721 230.421 181.974C203.847 174.082 184.143 147.23 184.553 119.464C184.751 106.073 189.109 93.0832 190.232 79.7365C191.834 60.7522 186.304 40.7363 173.121 27.0111C159.932 13.2859 138.696 7.00176 120.912 13.742C105.07 19.7442 94.1321 34.421 79.309 42.6381C50.5099 58.6027 44.4446 52.4795 -5.07557 58.2695Z" fill="#F2F2F2"/>
<path opacity="0.47" d="M205.641 336.782L205.641 213.756L186.988 213.756L186.988 162.794L164.091 162.794L164.091 214.636H158.44L158.44 191.788H142.607L142.607 214.347L120.28 214.347L120.28 257.693H105.581L105.581 241.292L86.6436 221.668L86.6436 240.997L75.3345 240.997L75.3345 185.347L51.8793 185.347L51.8793 336.782L205.641 336.782Z" fill="#FFCC00"/>
<path opacity="0.47" d="M52.0109 212.756L52.0109 335.782L5.14296 335.782L7.88688 161.365L34.2145 161.794L34.2145 212.756L52.0109 212.756Z" fill="#FFCC00"/>
<path d="M297.412 337.869L297.375 340.278L3.1045 338.051L3.1424 335.641L297.412 337.869Z" fill="url(#paint0_linear)"/>
<path d="M174.885 166.726C175.427 164.741 175.736 162.66 175.77 160.502C175.983 146.951 165.372 135.793 152.065 135.577C138.759 135.36 127.802 146.167 127.589 159.717C127.555 161.876 127.798 163.965 128.277 165.967C128.277 165.973 128.283 165.98 128.283 165.986C128.863 168.405 129.807 170.677 131.035 172.758C135.212 182.552 140.873 193.769 150.879 210.979C160.46 194.871 168.138 181.418 172.229 172.915C173.37 171.02 174.268 168.948 174.873 166.756C174.879 166.744 174.885 166.732 174.885 166.726Z" fill="url(#paint1_linear)"/>
<path d="M155.917 170.919C161.79 168.553 164.667 161.787 162.344 155.807C160.021 149.827 153.377 146.897 147.505 149.263C141.633 151.629 138.755 158.395 141.078 164.375C143.401 170.355 150.045 173.285 155.917 170.919Z" fill="white"/>
<path d="M148.575 272.306L206.658 273.251L178.003 248.014L149.354 222.776L119.926 247.068L90.4918 271.36L148.575 272.306Z" fill="url(#paint2_linear)"/>
<path d="M194.787 273.057L102.363 271.553L101.387 333.588L193.811 335.092L194.787 273.057Z" fill="url(#paint3_linear)"/>
<path d="M149.213 251.203L143.479 251.109L143.374 257.756L149.109 257.85L149.213 251.203Z" fill="white"/>
<path d="M156.827 251.327L151.093 251.233L150.988 257.88L156.723 257.974L156.827 251.327Z" fill="white"/>
<path d="M149.085 259.38L143.35 259.287L143.246 265.934L148.98 266.027L149.085 259.38Z" fill="white"/>
<path d="M156.699 259.504L150.964 259.41L150.86 266.057L156.594 266.15L156.699 259.504Z" fill="white"/>
<path d="M162.408 292.501L138.617 292.113L137.955 334.183L161.746 334.571L162.408 292.501Z" fill="white"/>
<path d="M268.72 308.464C268.255 304.077 264.695 299.732 260.372 300.034C263.959 296.894 266.171 292.177 266.307 287.36C266.389 284.487 265.638 281.392 263.457 279.564C261.596 277.999 258.54 277.894 256.816 279.456C259.748 275.552 260.894 270.28 259.786 265.486C258.589 260.304 254.785 255.814 249.927 253.845C247.188 252.73 244.01 252.415 241.329 253.668C238.491 254.992 236.626 257.867 235.528 260.846C233.458 266.47 233.643 272.65 233.861 278.654C230.556 277.952 227.003 278.549 224.093 280.287C223.044 280.918 221.986 281.709 221.601 282.938C221.354 283.717 221.335 284.554 221.328 285.374C221.317 288.768 221.575 292.234 222.285 295.555C222.61 297.071 223.061 298.564 223.699 299.976C224.036 300.721 225.28 303.689 226.155 303.844C223.4 303.359 220.683 305.394 219.465 307.962C218.248 310.523 218.207 313.489 218.318 316.335C218.497 321.005 219.204 326.074 222.511 329.309C226.084 332.804 231.297 333.171 235.941 333.846C241.137 334.603 246.525 334.556 251.56 332.913C257.76 330.886 262.616 326.885 265.52 320.969C267.407 317.122 269.186 312.857 268.72 308.464Z" fill="#F7D19C"/>
<path d="M244.898 336.475C245.092 324.087 245.287 311.698 245.482 299.31C245.524 296.631 241.441 296.565 241.399 299.243C241.204 311.632 241.009 324.02 240.814 336.409C240.772 339.087 244.855 339.16 244.898 336.475Z" fill="#FFF3C3"/>
<path d="M244.926 323.564C249.454 322.885 253.748 320.606 256.942 317.276C257.687 316.499 257.804 315.125 256.988 314.335C256.201 313.576 254.9 313.457 254.1 314.288C253.746 314.655 253.379 315.016 253.002 315.352C252.801 315.533 252.594 315.707 252.387 315.881C252.296 315.959 252.198 316.031 252.107 316.109C251.967 316.223 251.937 316.234 252.095 316.121C251.244 316.743 250.364 317.303 249.432 317.79C248.978 318.027 248.518 318.234 248.052 318.44C248.234 318.364 248.221 318.376 248.046 318.44C247.937 318.481 247.823 318.528 247.714 318.569C247.46 318.663 247.206 318.751 246.953 318.832C245.957 319.152 244.938 319.386 243.909 319.541C242.849 319.701 242.143 321.084 242.439 322.074C242.787 323.241 243.789 323.735 244.926 323.564Z" fill="#FFF3C3"/>
<path d="M242.206 312.485C242.187 312.49 241.693 312.586 242.013 312.53C242.32 312.474 241.886 312.534 241.82 312.539C241.562 312.548 241.304 312.531 241.046 312.515C240.692 312.484 241.124 312.516 241.124 312.528C241.124 312.534 240.783 312.455 240.741 312.442C240.483 312.377 240.232 312.3 239.988 312.204C239.838 312.146 239.586 312.154 239.958 312.203C239.868 312.19 239.749 312.102 239.672 312.064C239.433 311.938 239.201 311.806 238.981 311.661C238.761 311.517 238.523 311.366 238.328 311.192C238.529 311.379 238.47 311.304 238.304 311.161C238.204 311.074 238.109 310.981 238.014 310.887C237.624 310.508 237.294 310.087 236.94 309.665C236.74 309.423 237.211 310.055 236.899 309.609C236.817 309.492 236.735 309.374 236.658 309.257C236.518 309.04 236.377 308.824 236.242 308.601C235.639 307.619 235.121 306.583 234.603 305.553C234.113 304.585 232.732 304.183 231.822 304.762C230.851 305.376 230.521 306.557 231.045 307.593C232.215 309.918 233.468 312.361 235.435 314.105C237.597 316.024 240.361 317.109 243.235 316.514C244.284 316.298 245.013 315.014 244.705 313.981C244.356 312.85 243.332 312.252 242.206 312.485Z" fill="#FFF3C3"/>
<path d="M106.832 324.027C106.832 324.027 107.858 333.9 108.504 334.078C108.986 334.211 124.318 334.711 110.662 331.843L109.967 322.36L106.832 324.027Z" fill="#171A43"/>
<path d="M98.0814 323.311C98.0814 323.311 98.2516 333.237 97.6318 333.494C97.169 333.688 82.0132 336.101 95.2221 331.547L94.7682 322.049L98.0814 323.311Z" fill="#171A43"/>
<path d="M108.829 292.246C108.829 292.246 111.282 321.617 111.46 330.231C111.46 330.231 108.063 330.901 107.405 330.861L102.767 298.988L101.106 299.164L98.426 330.849C98.426 330.849 96.3428 331.112 94.3911 330.585C94.3911 330.585 94.4672 312.699 94.1991 291.515C93.929 270.332 108.829 292.246 108.829 292.246Z" fill="#FFC154"/>
<g opacity="0.2">
<path opacity="0.2" d="M109.174 296.448C109.856 304.886 111.324 323.637 111.461 330.229C111.461 330.229 108.064 330.899 107.406 330.859L102.768 298.986C102.768 298.986 106.417 297.965 109.174 296.448Z" fill="#171A43"/>
<path opacity="0.2" d="M94.2256 293.765C94.2169 293.018 94.2081 292.268 94.1975 291.511C93.9294 270.326 108.83 292.243 108.83 292.243C108.83 292.243 108.854 292.54 108.899 293.075C105.904 293.98 100.401 295.104 94.2256 293.765Z" fill="#171A43"/>
</g>
<path d="M101.438 263.706C101.438 263.706 101.317 265.803 101.874 266.558C102.43 267.313 107.192 266.785 107.321 269.677C107.45 272.57 92.8773 272.753 91.5486 271.239C90.2199 269.725 92.5403 267.303 94.4051 267.088C96.8971 266.803 97.184 265.129 96.8851 261.952C96.5862 258.774 101.438 263.706 101.438 263.706Z" fill="#FAC376"/>
<path d="M102.118 266.733C100.264 266.091 98.475 265.282 96.9746 263.989C96.9942 263.396 96.9556 262.718 96.8834 261.954C96.5845 258.778 101.437 263.706 101.437 263.706C101.437 263.706 101.315 265.803 101.872 266.558C101.922 266.625 102.008 266.683 102.118 266.733Z" fill="#FAC376"/>
<path d="M106.094 254.667C106.094 254.667 107.598 262.381 104.856 263.793C102.113 265.203 96.3276 266.482 95.9702 259.067C95.6127 251.652 99.1341 249.726 102.549 250.64C105.966 251.555 106.094 254.667 106.094 254.667Z" fill="#FAC376"/>
<path d="M102.961 257.358C102.961 257.358 102.993 257.509 103.066 257.724C103.136 257.94 103.247 258.222 103.368 258.496C103.491 258.769 103.628 259.039 103.742 259.235C103.854 259.432 103.944 259.556 103.944 259.556C103.944 259.556 103.912 259.405 103.839 259.191C103.769 258.975 103.658 258.693 103.537 258.419C103.414 258.145 103.277 257.876 103.163 257.679C103.051 257.483 102.961 257.358 102.961 257.358Z" fill="#FAC376"/>
<path d="M105.791 258.028C105.791 258.028 105.802 257.97 105.81 257.868C105.817 257.765 105.82 257.615 105.792 257.437C105.779 257.347 105.758 257.25 105.724 257.149C105.691 257.049 105.646 256.943 105.58 256.84C105.507 256.74 105.425 256.635 105.303 256.564L105.211 256.512C105.179 256.499 105.146 256.49 105.111 256.477C105.044 256.451 104.974 256.445 104.906 256.44L104.855 256.437L104.849 256.437L104.845 256.437L104.843 256.437L104.822 256.439L104.812 256.441L104.791 256.444L104.709 256.458C104.695 256.46 104.682 256.462 104.666 256.465L104.61 256.485C104.573 256.499 104.536 256.513 104.499 256.53C104.37 256.603 104.268 256.714 104.213 256.83C104.147 256.944 104.127 257.063 104.109 257.169C104.095 257.278 104.095 257.376 104.1 257.468C104.112 257.65 104.15 257.793 104.18 257.891C104.211 257.99 104.237 258.043 104.237 258.043C104.237 258.043 104.242 257.984 104.25 257.882C104.257 257.782 104.272 257.64 104.301 257.477C104.317 257.396 104.339 257.311 104.363 257.225C104.393 257.142 104.427 257.057 104.475 256.989C104.517 256.912 104.588 256.874 104.648 256.833C104.664 256.829 104.679 256.823 104.693 256.817L104.716 256.807C104.726 256.803 104.743 256.803 104.755 256.801L104.839 256.792L104.86 256.79L104.87 256.789C104.833 256.792 104.86 256.79 104.854 256.79L104.856 256.79L104.86 256.79L104.893 256.793C104.936 256.796 104.981 256.795 105.018 256.81C105.038 256.816 105.059 256.819 105.077 256.825L105.132 256.855C105.205 256.894 105.272 256.954 105.332 257.022C105.387 257.096 105.441 257.17 105.485 257.25C105.527 257.33 105.564 257.41 105.598 257.486C105.661 257.64 105.708 257.774 105.74 257.871C105.773 257.974 105.791 258.028 105.791 258.028Z" fill="#171A43"/>
<path d="M101.591 258.096C101.591 258.096 101.602 258.037 101.609 257.935C101.617 257.833 101.62 257.682 101.592 257.504C101.579 257.414 101.558 257.318 101.524 257.217C101.491 257.116 101.445 257.011 101.379 256.907C101.307 256.808 101.225 256.702 101.103 256.631L101.011 256.579C100.978 256.566 100.946 256.557 100.911 256.546C100.844 256.52 100.774 256.515 100.706 256.509L100.655 256.507L100.649 256.506L100.645 256.506L100.643 256.506L100.622 256.508L100.612 256.51L100.591 256.514L100.509 256.527C100.495 256.529 100.482 256.531 100.466 256.535L100.41 256.555C100.373 256.569 100.336 256.583 100.299 256.599C100.17 256.672 100.068 256.783 100.013 256.899C99.9472 257.013 99.9269 257.132 99.9088 257.238C99.8948 257.347 99.8953 257.445 99.9 257.537C99.9115 257.719 99.9503 257.862 99.9795 257.961C100.011 258.059 100.037 258.112 100.037 258.112C100.037 258.112 100.042 258.054 100.049 257.951C100.057 257.851 100.072 257.709 100.101 257.547C100.117 257.465 100.138 257.38 100.162 257.295C100.192 257.212 100.227 257.127 100.275 257.058C100.317 256.982 100.388 256.943 100.448 256.902C100.464 256.898 100.479 256.892 100.493 256.886L100.516 256.876C100.526 256.872 100.543 256.873 100.555 256.871L100.639 256.862L100.66 256.86L100.67 256.858C100.633 256.861 100.66 256.86 100.654 256.86L100.656 256.86L100.66 256.86L100.693 256.862C100.736 256.865 100.781 256.864 100.817 256.879C100.838 256.886 100.858 256.888 100.877 256.895L100.932 256.925C101.005 256.964 101.072 257.023 101.132 257.091C101.186 257.165 101.241 257.239 101.285 257.319C101.326 257.399 101.364 257.479 101.398 257.555C101.461 257.709 101.508 257.843 101.54 257.94C101.573 258.039 101.591 258.096 101.591 258.096Z" fill="#171A43"/>
<path d="M97.8281 259.409C97.8281 259.409 101.79 258.433 103.345 258.358C104.518 258.302 105.982 258.9 106.63 259.197C106.754 261.488 106.144 263.712 104.935 264.386C103.188 265.361 100.355 265.898 98.3713 264.28C97.6518 262.136 97.8281 259.409 97.8281 259.409Z" fill="white"/>
<path d="M103.357 264.121C103.969 264.108 104.719 264.062 105.482 263.928C105.315 264.118 105.134 264.273 104.935 264.385C103.188 265.36 100.355 265.897 98.3713 264.278C98.0497 263.324 97.9085 262.254 97.8486 261.36C99.215 263.088 101.187 264.167 103.357 264.121Z" fill="#E5E5E5"/>
<path d="M99.1154 259.38C99.1154 259.38 97.247 259.697 96.4621 258.841L95.952 260.223C95.952 260.223 97.0224 262.621 98.6513 263.442" stroke="#E5E5E5" stroke-width="0.906" stroke-miterlimit="10"/>
<path d="M99.1154 259.38C99.1154 259.38 97.247 259.696 96.4621 258.841" stroke="white" stroke-width="0.906" stroke-miterlimit="10"/>
<path d="M96.3481 257.598C96.3481 257.598 95.5105 256.307 94.782 257.472C94.0515 258.637 94.9431 260.539 96.1598 260.299C96.9751 260.139 96.3481 257.598 96.3481 257.598Z" fill="#FAC376"/>
<path d="M98.0755 255.047C98.0755 255.047 98.5734 257.189 97.0127 257.76L97.125 259.101L96.5492 259.042C96.5492 259.042 96.493 257.007 95.3821 257.039L95.3674 255.104L98.0755 255.047Z" fill="#171A43"/>
<path d="M96.1797 259.824C96.0963 259.777 96.017 259.725 95.9482 259.664C95.9138 259.632 95.8836 259.598 95.8595 259.562C95.8375 259.526 95.8197 259.486 95.8243 259.45C95.8205 259.432 95.8269 259.415 95.8334 259.398C95.8357 259.382 95.8482 259.365 95.8608 259.349C95.8693 259.332 95.8839 259.318 95.9005 259.303C95.9172 259.289 95.9318 259.275 95.9484 259.262C95.9857 259.24 96.021 259.213 96.0603 259.193L96.1823 259.134L96.2298 259.112L96.2266 259.058C96.2082 258.79 96.1713 258.526 96.1057 258.264C96.0749 258.134 96.0359 258.001 95.9805 257.875C95.925 257.749 95.8634 257.618 95.744 257.514C95.6853 257.463 95.6059 257.42 95.5197 257.416C95.4316 257.41 95.3551 257.443 95.2909 257.483L95.21 257.539L95.1267 257.612C95.0766 257.666 95.0326 257.724 95.0008 257.79C94.9372 257.921 94.9184 258.067 94.9389 258.203C94.9573 258.339 94.9983 258.469 95.0642 258.583C94.9881 258.333 94.9782 258.051 95.1066 257.848C95.1382 257.799 95.1779 257.753 95.2195 257.716L95.286 257.665L95.3708 257.618C95.4163 257.596 95.468 257.576 95.511 257.583C95.554 257.588 95.5947 257.61 95.6331 257.648C95.7079 257.72 95.7697 257.832 95.8151 257.948C95.8605 258.063 95.8996 258.185 95.9326 258.311C95.9963 258.561 96.0436 258.819 96.0806 259.074L96.1249 258.998L95.9965 259.073C95.953 259.099 95.9134 259.134 95.874 259.163C95.8552 259.181 95.8364 259.202 95.8197 259.22C95.801 259.239 95.7842 259.262 95.7715 259.289C95.7567 259.314 95.7419 259.338 95.7394 259.37C95.7328 259.399 95.7282 259.428 95.7339 259.459C95.7391 259.52 95.7732 259.569 95.8054 259.609C95.8397 259.649 95.8802 259.679 95.9209 259.707C95.998 259.761 96.0877 259.798 96.1797 259.824Z" fill="#FAC376"/>
<path d="M103.263 249.402C106.067 249.798 106.248 254.027 106.256 254.859C118.944 255.714 95.1803 256.096 95.1803 256.096C94.6179 249.708 100.152 248.962 103.263 249.402Z" fill="#F46B29"/>
<path d="M95.1815 256.096C104.757 255.625 106.257 254.859 106.257 254.859C118.948 255.714 95.1815 256.096 95.1815 256.096Z" fill="#ED621F"/>
<path d="M103.639 266.976C103.639 266.976 102.731 269.212 100.013 269.268C97.2946 269.327 95.7868 266.541 95.7868 266.541C95.7868 266.541 92.0952 266.891 91.2842 269.126C90.4732 271.362 92.8581 292.368 92.8581 292.368C92.8581 292.368 102.231 294.769 109.842 291.928C109.842 291.928 108.872 273.4 108.701 271.966C108.531 270.532 108.39 267.258 103.639 266.976Z" fill="#F46B29"/>
<path d="M100.861 280.829C103.661 281.552 106.493 282.098 109.341 282.527C109.605 287.323 109.846 291.927 109.846 291.927C102.234 294.769 92.862 292.368 92.862 292.368C92.862 292.368 91.8904 283.81 91.3977 277.039C94.3793 278.761 97.6437 279.997 100.861 280.829Z" fill="#ED621F"/>
<path d="M100.086 269.79C97.3475 269.85 95.5939 267.556 95.0168 266.667C95.4781 266.57 95.7905 266.541 95.7905 266.541C95.7905 266.541 97.2983 269.327 100.017 269.269C102.733 269.21 103.64 266.976 103.64 266.976C103.954 266.994 104.247 267.028 104.521 267.07C104.191 267.717 102.932 269.728 100.086 269.79Z" fill="#ED621F"/>
<path d="M118.995 272.923L120.17 290.073L100.336 291.484L99.1605 274.334L118.995 272.923Z" fill="#F5D777"/>
<path d="M118.995 272.923L120.17 290.073L107.071 291.005L105.895 273.855L118.995 272.923Z" fill="#F9E8A6"/>
<path d="M103.328 274.038L103.564 277.476L101.586 277.616L101.351 274.179L103.328 274.038Z" fill="#E2B913"/>
<path d="M119.823 285.048C119.823 285.048 120.485 284.971 120.303 283.71C120.303 283.71 120.639 282.487 120.042 282.067C120.042 282.067 120.323 281.43 119.52 281.348C118.718 281.266 116.564 281.981 119.376 282.027C119.376 282.027 113.797 282.843 119.431 282.778C119.431 282.778 114.074 283.462 119.488 283.461C119.488 283.461 115.442 284.216 119.68 284.078L119.823 285.048Z" fill="white"/>
<path d="M89.9145 273.502L95.4296 274.001L94.9229 280.641L103.756 283.538C103.721 283.681 103.698 283.827 103.685 283.98C103.621 284.802 103.541 285.622 103.468 286.442C98.352 286.148 90.4349 285.304 89.9398 284.55C89.06 283.204 89.9145 273.502 89.9145 273.502Z" fill="#FAC376"/>
<path d="M102.857 283.24L103.76 283.535C103.725 283.679 103.702 283.824 103.689 283.977C103.625 284.799 103.544 285.619 103.472 286.439C103.105 286.419 102.721 286.394 102.33 286.369C102.51 285.327 102.691 284.285 102.857 283.24Z" fill="#FAC376"/>
<path d="M89.6668 277.097C89.7761 275.105 89.9163 273.502 89.9163 273.502L95.4313 274.001L95.1906 277.168C93.3501 277.14 91.5075 277.116 89.6668 277.097Z" fill="#FAC376"/>
<path d="M103.32 283.196L104.184 283.48C108.022 281.916 105.134 283.604 105.134 283.604C111.7 283.711 105.76 284.264 105.76 284.264C111.901 284.364 105.855 285.024 105.855 285.024C113.048 285.576 105.631 285.779 105.631 285.779C110.314 286.6 107.487 286.685 102.947 286.4C103.058 285.334 103.184 284.264 103.32 283.196Z" fill="white"/>
<path d="M96.293 276.776L89.1778 275.843C89.1778 275.843 88.5128 267.623 95.1508 266.671L96.293 276.776Z" fill="#F46B29"/>
<defs>
<linearGradient id="paint0_linear" x1="297.373" y1="340.354" x2="3.14097" y2="335.725" gradientUnits="userSpaceOnUse">
<stop stop-color="#FFCC00"/>
<stop offset="1" stop-color="#FF9500"/>
</linearGradient>
<linearGradient id="paint1_linear" x1="127.38" y1="172.885" x2="175.563" y2="173.643" gradientUnits="userSpaceOnUse">
<stop stop-color="#FFCC00"/>
<stop offset="1" stop-color="#FF9500"/>
</linearGradient>
<linearGradient id="paint2_linear" x1="77.4353" y1="235.782" x2="249.394" y2="279.844" gradientUnits="userSpaceOnUse">
<stop stop-color="#7D7D80"/>
<stop offset="1" stop-color="#27272A"/>
</linearGradient>
<linearGradient id="paint3_linear" x1="65.7346" y1="281.443" x2="237.694" y2="325.506" gradientUnits="userSpaceOnUse">
<stop stop-color="#7D7D80"/>
<stop offset="1" stop-color="#27272A"/>
</linearGradient>
</defs>
</svg>
